<svg width="346" height="320" viewBox="0 0 346 320" fill="none" xmlns="http://www.w3.org/2000/svg">
<rect width="346" height="320" fill="#F5F5F5"/>
<rect width="346" height="320" fill="white"/>
<path d="M173 300C256.602 300 324.375 237.32 324.375 160C324.375 82.6801 256.602 20 173 20C89.3979 20 21.625 82.6801 21.625 160C21.625 237.32 89.3979 300 173 300Z" fill="#25EF14"/>
<path d="M216.25 130C218.38 130 220.489 130.388 222.457 131.142C224.425 131.896 226.212 133.001 227.719 134.394C229.225 135.787 230.419 137.44 231.234 139.26C232.049 141.08 232.469 143.031 232.469 145C232.469 148.979 230.76 152.794 227.718 155.607C224.677 158.42 220.551 160 216.25 160H205.438V150H216.25V130ZM129.75 130C127.62 130 125.511 130.388 123.543 131.142C121.576 131.896 119.788 133.001 118.282 134.394C116.776 135.787 115.581 137.44 114.766 139.26C113.951 141.08 113.531 143.031 113.531 145C113.531 148.979 115.24 152.794 118.282 155.607C121.323 158.42 125.449 160 129.75 160H140.563V150H129.75V130Z" fill="#D38D5F"/>
<path d="M140.563 197.969C140.563 197.969 75.1214 206.63 57.2514 248.047C57.0061 248.471 56.7724 248.898 56.5546 249.317C70.7456 265.159 88.5371 277.914 108.663 286.674C128.79 295.434 150.756 299.985 173 300.001C195.248 299.987 217.218 295.439 237.348 286.678C257.479 277.918 275.274 265.162 289.467 249.317C289.242 248.89 289.008 248.471 288.749 248.047C270.879 206.63 205.438 197.969 205.438 197.969H140.563Z" fill="#F2F2F2"/>
<path d="M140.563 180V220C173 250 205.438 220 205.438 220V180" fill="#D38D5F"/>
<g opacity="0.696" filter="url(#filter0_f_0_1)">
<path d="M140.561 190.011V180.011H172.999H205.436V190.011C205.436 190.011 203.409 191.885 199.861 194.229C196.313 196.573 191.245 199.387 185.163 201.262C179.081 203.136 171.985 204.074 164.383 202.668C156.78 201.262 148.671 197.511 140.561 190.011V190.011Z" fill="#502D16"/>
</g>
<path d="M216.25 120L216.25 150.002C216.25 177.615 196.887 200.001 173 200.001C149.114 200.001 129.75 177.615 129.75 150.001C129.75 150.001 129.748 130 129.748 120C129.748 110 147.049 90.0004 172.999 90.0004C198.95 90.0004 216.25 110 216.25 120Z" fill="#FFB380"/>
<path d="M129.75 135.001C126.882 135.001 124.132 136.054 122.104 137.929C120.077 139.805 118.938 142.348 118.938 145C118.938 147.653 120.077 150.196 122.104 152.071C124.132 153.947 126.882 155 129.75 155V135.001ZM216.25 135.001C219.118 135.001 221.868 136.054 223.896 137.929C225.923 139.805 227.062 142.348 227.063 145C227.062 147.653 225.923 150.196 223.896 152.071C221.868 153.947 219.118 155 216.25 155V135.001Z" fill="#A05A2C"/>
<path d="M140.563 197.969C140.563 197.969 136.354 198.536 129.792 200.04L140.563 210.001V197.969Z" fill="black" fill-opacity="0.988"/>
<g opacity="0.455" filter="url(#filter1_f_0_1)">
<path d="M133.212 201.027C130.583 201.571 127.394 202.301 123.751 203.272C123.781 203.386 123.804 203.499 123.837 203.613C143.954 233.477 170.022 238.41 173 238.885V230.487C172.914 230.476 172.833 230.459 172.747 230.449C150.988 227.637 133.917 202.102 133.214 201.036L133.212 201.027Z" fill="#1A1A1A"/>
</g>
<path d="M133.213 199.297C130.584 199.841 127.395 200.571 123.752 201.542C123.782 201.656 123.805 201.769 123.838 201.882C143.955 231.747 170.022 236.681 173.001 237.156V228.757C172.916 228.746 172.833 228.729 172.748 228.719C150.989 225.908 133.918 200.371 133.214 199.305L133.213 199.297Z" fill="#F2F2F2"/>
<path d="M205.438 197.969C205.438 197.969 209.647 198.536 216.208 200.04L205.438 210.001V197.969Z" fill="black" fill-opacity="0.988"/>
<g opacity="0.455" filter="url(#filter2_f_0_1)">
<path d="M212.786 201.027C215.415 201.571 218.604 202.301 222.247 203.272C222.217 203.386 222.194 203.499 222.161 203.613C202.044 233.477 175.976 238.41 172.998 238.885V230.487C173.084 230.476 173.165 230.459 173.251 230.449C195.01 227.637 212.08 202.1 212.784 201.035L212.786 201.027Z" fill="#1A1A1A"/>
</g>
<path d="M212.787 199.297C215.417 199.841 218.606 200.571 222.248 201.542C222.219 201.656 222.195 201.769 222.162 201.882C202.045 231.747 175.978 236.68 172.999 237.156V228.757C173.085 228.746 173.167 228.729 173.253 228.719C195.011 225.907 212.082 200.371 212.786 199.305L212.787 199.297Z" fill="#F2F2F2"/>
<path d="M221.643 125.001C221.643 100.148 199.859 80.0005 172.987 80.0005C146.114 80.0005 124.33 100.148 124.33 125.001H221.643Z" fill="#00B2FF"/>
<path d="M167.58 77.7324H181.499L178.393 110.001H167.58L164.713 77.7324" fill="#00FF57"/>
<path d="M173.063 120.547C143.854 120.471 124.323 125 124.323 125C124.323 125 167.573 145 221.635 125C203.896 121.72 187.328 120.582 173.063 120.547ZM117.861 203.223C108.547 206.058 97.5976 210.271 87.3237 216.367L90.1957 276.914C112.117 290.191 137.389 297.977 163.539 299.512C163.533 253.245 126.786 212.447 117.861 203.223V203.223ZM228.273 203.223C237.587 206.058 248.536 210.271 258.81 216.368L255.938 276.914C234.017 290.191 208.745 297.977 182.595 299.512C182.601 253.245 219.348 212.447 228.273 203.223V203.223Z" fill="#0094FF"/>
<path d="M107.386 206.797C103.694 208.203 99.9036 209.84 96.1088 211.68C101.886 226.869 114.702 262.903 116.952 289.707C121.101 291.26 125.322 292.641 129.602 293.848C129.766 280.853 126.574 254.192 107.386 206.797V206.797ZM238.45 206.797C242.142 208.203 245.933 209.84 249.728 211.68C243.95 226.869 231.134 262.903 228.884 289.708C224.736 291.26 220.515 292.642 216.234 293.848C216.071 280.853 219.263 254.192 238.45 206.797Z" fill="#00FF94"/>
<defs>
<filter id="filter0_f_0_1" x="139.828" y="179.278" width="66.3414" height="24.8001" filterUnits="userSpaceOnUse" color-interpolation-filters="sRGB">
<feFlood flood-opacity="0" result="BackgroundImageFix"/>
<feBlend mode="normal" in="SourceGraphic" in2="BackgroundImageFix" result="shape"/>
<feGaussianBlur stdDeviation="0.366614" result="effect1_foregroundBlur_0_1"/>
</filter>
<filter id="filter1_f_0_1" x="123.472" y="200.747" width="49.8083" height="38.4181" filterUnits="userSpaceOnUse" color-interpolation-filters="sRGB">
<feFlood flood-opacity="0" result="BackgroundImageFix"/>
<feBlend mode="normal" in="SourceGraphic" in2="BackgroundImageFix" result="shape"/>
<feGaussianBlur stdDeviation="0.139843" result="effect1_foregroundBlur_0_1"/>
</filter>
<filter id="filter2_f_0_1" x="172.718" y="200.747" width="49.8082" height="38.4181" filterUnits="userSpaceOnUse" color-interpolation-filters="sRGB">
<feFlood flood-opacity="0" result="BackgroundImageFix"/>
<feBlend mode="normal" in="SourceGraphic" in2="BackgroundImageFix" result="shape"/>
<feGaussianBlur stdDeviation="0.139843" result="effect1_foregroundBlur_0_1"/>
</filter>
</defs>
</svg>
