<svg width="600" height="227" viewBox="0 0 600 227" fill="none" xmlns="http://www.w3.org/2000/svg">
<rect width="600" height="227" fill="#FFF"/>
<path d="M315.5 77.5C310.5 73.3 301.9 71.2 289.7 71.2H262.3V155.9H282.8V129.3H292C303.1 129.3 311.3 126.8 316.5 121.9C322.4 116.4 325.3 109.1 325.3 99.9C325.3 90.5 322 83 315.5 77.5ZM291.4 110.1H282.7V90.3H290.5C300 90.3 304.7 93.6 304.7 100.3C304.8 106.8 300.3 110.1 291.4 110.1ZM360.3 71.1H339V155.8H385.1V136.6H360.3V71.1ZM427 71.1L393.4 155.8H416.4L420.8 143.5H450L454 155.8H477.3L444 71.1H427ZM426.7 126.4L435.5 97.4L444.2 126.4H426.7Z" fill="#111111"/>
<path d="M488 155.8H509.4V71.1H488V155.8ZM592.3 87C589.6 83.1 586.1 79.8 582.1 77.2C575.6 73.1 566.8 71.1 555.7 71.1H527.5V155.8H560.4C572.3 155.8 581.9 151.9 589.1 144.1C596.3 136.3 599.9 126 599.9 113.1C600 102.9 597.4 94.2 592.3 87ZM558.1 136.6H549V90.3H558.3C564.8 90.3 569.9 92.3 573.4 96.4C576.9 100.5 578.7 106.3 578.7 113.8C578.6 129 571.8 136.6 558.1 136.6ZM88.7 0L19.4 18.1L0.299999 87.8L24.3 112.3L0 136.4L18 206.4L87 225.7L111.3 201.6L135.2 226.1L204.5 208L223.6 138.3L199.7 113.8L224 89.7L206 19.7L137 0.400009L112.7 24.5L88.7 0ZM46.2 31.5L82.7 21.9L98.7 38.3L75.4 61.4L46.2 31.5ZM126.3 38.6L142.5 22.5L178.8 32.7L149.1 62.2C149.2 62.1 126.3 38.6 126.3 38.6ZM22.2 82.1L32.3 45.4L61.5 75.3L38.2 98.4L22.2 82.1ZM162.9 76.2L192.6 46.7L202.1 83.6L185.9 99.7C185.8 99.7 162.9 76.2 162.9 76.2ZM89.1 75.6L112.4 52.5L135.3 76L112 99.1L89.1 75.6ZM51.9 112.5L75.2 89.4L98.1 112.9L74.8 136L51.9 112.5ZM125.7 113.1L149 90L171.9 113.5L148.6 136.6C148.6 136.7 125.7 113.1 125.7 113.1ZM21.8 142.5L38 126.4L60.9 149.9L31.3 179.4C31.2 179.4 21.8 142.5 21.8 142.5ZM88.5 150.1L111.8 127L134.7 150.5L111.4 173.6L88.5 150.1ZM162.3 150.7L185.6 127.6L201.6 144L191.6 180.7C191.5 180.7 162.3 150.7 162.3 150.7ZM44.9 193.4L74.5 163.9L97.4 187.4L81.2 203.5L44.9 193.4ZM125.1 187.7L148.4 164.6L177.6 194.5L141.1 204.1C141.1 204.1 125.1 187.7 125.1 187.7Z" fill="#111111"/>
</svg>
