<svg width="246" height="206" viewBox="0 0 246 206" fill="none" xmlns="http://www.w3.org/2000/svg">
<rect width="246" height="206" fill="white"/>
<rect x="61" y="63" width="55" height="55" fill="url(#paint0_linear)"/>
<rect x="126" y="63" width="55" height="55" fill="url(#paint1_linear)"/>
<path d="M191 63L246 118H191V63Z" fill="url(#paint2_linear)"/>
<path d="M0 118L55 63V118H0Z" fill="url(#paint3_linear)"/>
<path d="M120.5 0L177.225 55.5H63.7753L120.5 0Z" fill="url(#paint4_linear)"/>
<path d="M104.6 146.1C103.867 144.833 101.133 144.2 96.4 144.2C90.2 144.2 85.5 146.3 82.3 150.5C79.1 154.7 77.5 160.767 77.5 168.7C77.5 185.167 83.6667 193.4 96 193.4C96.2 193.4 97.0667 193.4 98.6 193.4C100.2 193.4 101.7 193.2 103.1 192.8C104.5 192.333 105.333 191.867 105.6 191.4C105.867 190.933 106 190.2 106 189.2V181.2L116.2 181.9V199.2C111 201.933 104.4 203.3 96.4 203.3C86.2 203.3 78.4 200.433 73 194.7C67.6667 188.967 65 180.433 65 169.1C65 162.833 65.9 157.367 67.7 152.7C69.5 148.033 71.9333 144.4 75 141.8C81 136.8 88.1333 134.3 96.4 134.3C103.067 134.3 109.333 135.667 115.2 138.4V155.4L105 156.1V148.3C105 147.3 104.867 146.567 104.6 146.1ZM134.556 202V193.9L137.856 193.6C139.79 193.4 140.756 192.467 140.756 190.8V144.3L135.056 144V135.5H183.356V152.1L173.156 152.8V148.8C173.156 147.667 172.99 146.867 172.656 146.4C172.323 145.933 171.523 145.7 170.256 145.7H152.956V163.4H177.556V173.6H152.956V193.2L161.856 193.5V202H134.556Z" fill="url(#paint5_linear)"/>
<path d="M104.6 146.1L106.337 145.108L106.331 145.098L104.6 146.1ZM82.3 150.5L80.7091 149.288L80.7091 149.288L82.3 150.5ZM103.1 192.8L103.649 194.723L103.691 194.711L103.732 194.697L103.1 192.8ZM105.6 191.4L103.864 190.408L103.864 190.408L105.6 191.4ZM106 181.2L106.137 179.205L104 179.058V181.2H106ZM116.2 181.9H118.2V180.033L116.337 179.905L116.2 181.9ZM116.2 199.2L117.131 200.97L118.2 200.408V199.2H116.2ZM73 194.7L71.5356 196.062L71.5441 196.071L73 194.7ZM67.7 152.7L65.834 151.98L65.834 151.98L67.7 152.7ZM75 141.8L73.7196 140.264L73.7131 140.269L73.7066 140.274L75 141.8ZM115.2 138.4H117.2V137.125L116.045 136.587L115.2 138.4ZM115.2 155.4L115.337 157.395L117.2 157.267V155.4H115.2ZM105 156.1H103V158.242L105.137 158.095L105 156.1ZM106.331 145.098C105.521 143.699 103.915 143.066 102.451 142.727C100.87 142.36 98.8302 142.2 96.4 142.2V146.2C98.7032 146.2 100.397 146.356 101.549 146.623C102.818 146.918 102.946 147.234 102.869 147.102L106.331 145.098ZM96.4 142.2C89.6985 142.2 84.3561 144.501 80.7091 149.288L83.8909 151.712C86.6439 148.099 90.7015 146.2 96.4 146.2V142.2ZM80.7091 149.288C77.14 153.972 75.5 160.538 75.5 168.7H79.5C79.5 160.995 81.06 155.428 83.8909 151.712L80.7091 149.288ZM75.5 168.7C75.5 177.125 77.0674 183.809 80.5242 188.424C84.0624 193.148 89.3443 195.4 96 195.4V191.4C90.3223 191.4 86.3543 189.535 83.7258 186.026C81.0159 182.408 79.5 176.741 79.5 168.7H75.5ZM96 195.4C96.0004 195.4 96.0008 195.4 96.0012 195.4C96.0016 195.4 96.002 195.4 96.0024 195.4C96.0028 195.4 96.0032 195.4 96.0036 195.4C96.004 195.4 96.0044 195.4 96.0048 195.4C96.0052 195.4 96.0056 195.4 96.0061 195.4C96.0065 195.4 96.0069 195.4 96.0073 195.4C96.0077 195.4 96.0082 195.4 96.0086 195.4C96.009 195.4 96.0094 195.4 96.0099 195.4C96.0103 195.4 96.0107 195.4 96.0112 195.4C96.0116 195.4 96.012 195.4 96.0125 195.4C96.0129 195.4 96.0134 195.4 96.0138 195.4C96.0143 195.4 96.0147 195.4 96.0152 195.4C96.0156 195.4 96.0161 195.4 96.0165 195.4C96.017 195.4 96.0174 195.4 96.0179 195.4C96.0184 195.4 96.0188 195.4 96.0193 195.4C96.0198 195.4 96.0202 195.4 96.0207 195.4C96.0212 195.4 96.0217 195.4 96.0221 195.4C96.0226 195.4 96.0231 195.4 96.0236 195.4C96.0241 195.4 96.0245 195.4 96.025 195.4C96.0255 195.4 96.026 195.4 96.0265 195.4C96.027 195.4 96.0275 195.4 96.028 195.4C96.0285 195.4 96.029 195.4 96.0295 195.4C96.03 195.4 96.0305 195.4 96.031 195.4C96.0315 195.4 96.032 195.4 96.0325 195.4C96.033 195.4 96.0335 195.4 96.0341 195.4C96.0346 195.4 96.0351 195.4 96.0356 195.4C96.0362 195.4 96.0367 195.4 96.0372 195.4C96.0377 195.4 96.0383 195.4 96.0388 195.4C96.0393 195.4 96.0399 195.4 96.0404 195.4C96.0409 195.4 96.0415 195.4 96.042 195.4C96.0426 195.4 96.0431 195.4 96.0437 195.4C96.0442 195.4 96.0448 195.4 96.0453 195.4C96.0459 195.4 96.0464 195.4 96.047 195.4C96.0475 195.4 96.0481 195.4 96.0487 195.4C96.0492 195.4 96.0498 195.4 96.0504 195.4C96.0509 195.4 96.0515 195.4 96.0521 195.4C96.0527 195.4 96.0532 195.4 96.0538 195.4C96.0544 195.4 96.055 195.4 96.0556 195.4C96.0561 195.4 96.0567 195.4 96.0573 195.4C96.0579 195.4 96.0585 195.4 96.0591 195.4C96.0597 195.4 96.0603 195.4 96.0609 195.4C96.0615 195.4 96.0621 195.4 96.0627 195.4C96.0633 195.4 96.0639 195.4 96.0645 195.4C96.0651 195.4 96.0657 195.4 96.0663 195.4C96.0669 195.4 96.0676 195.4 96.0682 195.4C96.0688 195.4 96.0694 195.4 96.0701 195.4C96.0707 195.4 96.0713 195.4 96.0719 195.4C96.0726 195.4 96.0732 195.4 96.0738 195.4C96.0745 195.4 96.0751 195.4 96.0757 195.4C96.0764 195.4 96.077 195.4 96.0777 195.4C96.0783 195.4 96.079 195.4 96.0796 195.4C96.0803 195.4 96.0809 195.4 96.0816 195.4C96.0822 195.4 96.0829 195.4 96.0835 195.4C96.0842 195.4 96.0849 195.4 96.0855 195.4C96.0862 195.4 96.0869 195.4 96.0875 195.4C96.0882 195.4 96.0889 195.4 96.0896 195.4C96.0902 195.4 96.0909 195.4 96.0916 195.4C96.0923 195.4 96.093 195.4 96.0936 195.4C96.0943 195.4 96.095 195.4 96.0957 195.4C96.0964 195.4 96.0971 195.4 96.0978 195.4C96.0985 195.4 96.0992 195.4 96.0999 195.4C96.1006 195.4 96.1013 195.4 96.102 195.4C96.1027 195.4 96.1034 195.4 96.1041 195.4C96.1048 195.4 96.1055 195.4 96.1063 195.4C96.107 195.4 96.1077 195.4 96.1084 195.4C96.1091 195.4 96.1099 195.4 96.1106 195.4C96.1113 195.4 96.112 195.4 96.1128 195.4C96.1135 195.4 96.1142 195.4 96.115 195.4C96.1157 195.4 96.1164 195.4 96.1172 195.4C96.1179 195.4 96.1187 195.4 96.1194 195.4C96.1202 195.4 96.1209 195.4 96.1217 195.4C96.1224 195.4 96.1232 195.4 96.1239 195.4C96.1247 195.4 96.1254 195.4 96.1262 195.4C96.127 195.4 96.1277 195.4 96.1285 195.4C96.1293 195.4 96.13 195.4 96.1308 195.4C96.1316 195.4 96.1324 195.4 96.1331 195.4C96.1339 195.4 96.1347 195.4 96.1355 195.4C96.1363 195.4 96.137 195.4 96.1378 195.4C96.1386 195.4 96.1394 195.4 96.1402 195.4C96.141 195.4 96.1418 195.4 96.1426 195.4C96.1434 195.4 96.1442 195.4 96.145 195.4C96.1458 195.4 96.1466 195.4 96.1474 195.4C96.1482 195.4 96.149 195.4 96.1498 195.4C96.1506 195.4 96.1515 195.4 96.1523 195.4C96.1531 195.4 96.1539 195.4 96.1547 195.4C96.1556 195.4 96.1564 195.4 96.1572 195.4C96.158 195.4 96.1589 195.4 96.1597 195.4C96.1605 195.4 96.1614 195.4 96.1622 195.4C96.163 195.4 96.1639 195.4 96.1647 195.4C96.1656 195.4 96.1664 195.4 96.1673 195.4C96.1681 195.4 96.169 195.4 96.1698 195.4C96.1707 195.4 96.1715 195.4 96.1724 195.4C96.1732 195.4 96.1741 195.4 96.175 195.4C96.1758 195.4 96.1767 195.4 96.1776 195.4C96.1784 195.4 96.1793 195.4 96.1802 195.4C96.1811 195.4 96.1819 195.4 96.1828 195.4C96.1837 195.4 96.1846 195.4 96.1855 195.4C96.1863 195.4 96.1872 195.4 96.1881 195.4C96.189 195.4 96.1899 195.4 96.1908 195.4C96.1917 195.4 96.1926 195.4 96.1935 195.4C96.1944 195.4 96.1953 195.4 96.1962 195.4C96.1971 195.4 96.198 195.4 96.1989 195.4C96.1998 195.4 96.2007 195.4 96.2016 195.4C96.2026 195.4 96.2035 195.4 96.2044 195.4C96.2053 195.4 96.2062 195.4 96.2072 195.4C96.2081 195.4 96.209 195.4 96.2099 195.4C96.2109 195.4 96.2118 195.4 96.2127 195.4C96.2137 195.4 96.2146 195.4 96.2156 195.4C96.2165 195.4 96.2174 195.4 96.2184 195.4C96.2193 195.4 96.2203 195.4 96.2212 195.4C96.2222 195.4 96.2231 195.4 96.2241 195.4C96.225 195.4 96.226 195.4 96.227 195.4C96.2279 195.4 96.2289 195.4 96.2298 195.4C96.2308 195.4 96.2318 195.4 96.2327 195.4C96.2337 195.4 96.2347 195.4 96.2357 195.4C96.2366 195.4 96.2376 195.4 96.2386 195.4C96.2396 195.4 96.2406 195.4 96.2416 195.4C96.2425 195.4 96.2435 195.4 96.2445 195.4C96.2455 195.4 96.2465 195.4 96.2475 195.4C96.2485 195.4 96.2495 195.4 96.2505 195.4C96.2515 195.4 96.2525 195.4 96.2535 195.4C96.2545 195.4 96.2555 195.4 96.2565 195.4C96.2575 195.4 96.2586 195.4 96.2596 195.4C96.2606 195.4 96.2616 195.4 96.2626 195.4C96.2636 195.4 96.2647 195.4 96.2657 195.4C96.2667 195.4 96.2678 195.4 96.2688 195.4C96.2698 195.4 96.2708 195.4 96.2719 195.4C96.2729 195.4 96.274 195.4 96.275 195.4C96.276 195.4 96.2771 195.4 96.2781 195.4C96.2792 195.4 96.2802 195.4 96.2813 195.4C96.2823 195.4 96.2834 195.4 96.2844 195.4C96.2855 195.4 96.2866 195.4 96.2876 195.4C96.2887 195.4 96.2898 195.4 96.2908 195.4C96.2919 195.4 96.293 195.4 96.294 195.4C96.2951 195.4 96.2962 195.4 96.2973 195.4C96.2983 195.4 96.2994 195.4 96.3005 195.4C96.3016 195.4 96.3027 195.4 96.3037 195.4C96.3048 195.4 96.3059 195.4 96.307 195.4C96.3081 195.4 96.3092 195.4 96.3103 195.4C96.3114 195.4 96.3125 195.4 96.3136 195.4C96.3147 195.4 96.3158 195.4 96.3169 195.4C96.318 195.4 96.3191 195.4 96.3202 195.4C96.3214 195.4 96.3225 195.4 96.3236 195.4C96.3247 195.4 96.3258 195.4 96.327 195.4C96.3281 195.4 96.3292 195.4 96.3303 195.4C96.3315 195.4 96.3326 195.4 96.3337 195.4C96.3349 195.4 96.336 195.4 96.3371 195.4C96.3383 195.4 96.3394 195.4 96.3406 195.4C96.3417 195.4 96.3428 195.4 96.344 195.4C96.3451 195.4 96.3463 195.4 96.3474 195.4C96.3486 195.4 96.3498 195.4 96.3509 195.4C96.3521 195.4 96.3532 195.4 96.3544 195.4C96.3556 195.4 96.3567 195.4 96.3579 195.4C96.3591 195.4 96.3602 195.4 96.3614 195.4C96.3626 195.4 96.3638 195.4 96.3649 195.4C96.3661 195.4 96.3673 195.4 96.3685 195.4C96.3697 195.4 96.3709 195.4 96.372 195.4C96.3732 195.4 96.3744 195.4 96.3756 195.4C96.3768 195.4 96.378 195.4 96.3792 195.4C96.3804 195.4 96.3816 195.4 96.3828 195.4C96.384 195.4 96.3852 195.4 96.3864 195.4C96.3876 195.4 96.3889 195.4 96.3901 195.4C96.3913 195.4 96.3925 195.4 96.3937 195.4C96.3949 195.4 96.3962 195.4 96.3974 195.4C96.3986 195.4 96.3998 195.4 96.4011 195.4C96.4023 195.4 96.4035 195.4 96.4048 195.4C96.406 195.4 96.4072 195.4 96.4085 195.4C96.4097 195.4 96.411 195.4 96.4122 195.4C96.4135 195.4 96.4147 195.4 96.416 195.4C96.4172 195.4 96.4185 195.4 96.4197 195.4C96.421 195.4 96.4222 195.4 96.4235 195.4C96.4247 195.4 96.426 195.4 96.4273 195.4C96.4285 195.4 96.4298 195.4 96.4311 195.4C96.4323 195.4 96.4336 195.4 96.4349 195.4C96.4362 195.4 96.4374 195.4 96.4387 195.4C96.44 195.4 96.4413 195.4 96.4426 195.4C96.4439 195.4 96.4452 195.4 96.4464 195.4C96.4477 195.4 96.449 195.4 96.4503 195.4C96.4516 195.4 96.4529 195.4 96.4542 195.4C96.4555 195.4 96.4568 195.4 96.4581 195.4C96.4594 195.4 96.4607 195.4 96.4621 195.4C96.4634 195.4 96.4647 195.4 96.466 195.4C96.4673 195.4 96.4686 195.4 96.47 195.4C96.4713 195.4 96.4726 195.4 96.4739 195.4C96.4753 195.4 96.4766 195.4 96.4779 195.4C96.4792 195.4 96.4806 195.4 96.4819 195.4C96.4833 195.4 96.4846 195.4 96.4859 195.4C96.4873 195.4 96.4886 195.4 96.49 195.4C96.4913 195.4 96.4927 195.4 96.494 195.4C96.4954 195.4 96.4967 195.4 96.4981 195.4C96.4994 195.4 96.5008 195.4 96.5022 195.4C96.5035 195.4 96.5049 195.4 96.5063 195.4C96.5076 195.4 96.509 195.4 96.5104 195.4C96.5117 195.4 96.5131 195.4 96.5145 195.4C96.5159 195.4 96.5172 195.4 96.5186 195.4C96.52 195.4 96.5214 195.4 96.5228 195.4C96.5242 195.4 96.5256 195.4 96.527 195.4C96.5283 195.4 96.5297 195.4 96.5311 195.4C96.5325 195.4 96.5339 195.4 96.5353 195.4C96.5367 195.4 96.5381 195.4 96.5396 195.4C96.541 195.4 96.5424 195.4 96.5438 195.4C96.5452 195.4 96.5466 195.4 96.548 195.4C96.5494 195.4 96.5509 195.4 96.5523 195.4C96.5537 195.4 96.5551 195.4 96.5566 195.4C96.558 195.4 96.5594 195.4 96.5609 195.4C96.5623 195.4 96.5637 195.4 96.5652 195.4C96.5666 195.4 96.568 195.4 96.5695 195.4C96.5709 195.4 96.5724 195.4 96.5738 195.4C96.5753 195.4 96.5767 195.4 96.5782 195.4C96.5796 195.4 96.5811 195.4 96.5826 195.4C96.584 195.4 96.5855 195.4 96.5869 195.4C96.5884 195.4 96.5899 195.4 96.5913 195.4C96.5928 195.4 96.5943 195.4 96.5957 195.4C96.5972 195.4 96.5987 195.4 96.6002 195.4C96.6017 195.4 96.6031 195.4 96.6046 195.4C96.6061 195.4 96.6076 195.4 96.6091 195.4C96.6106 195.4 96.6121 195.4 96.6136 195.4C96.6151 195.4 96.6166 195.4 96.618 195.4C96.6195 195.4 96.6211 195.4 96.6226 195.4C96.6241 195.4 96.6256 195.4 96.6271 195.4C96.6286 195.4 96.6301 195.4 96.6316 195.4C96.6331 195.4 96.6346 195.4 96.6362 195.4C96.6377 195.4 96.6392 195.4 96.6407 195.4C96.6423 195.4 96.6438 195.4 96.6453 195.4C96.6468 195.4 96.6484 195.4 96.6499 195.4C96.6514 195.4 96.653 195.4 96.6545 195.4C96.6561 195.4 96.6576 195.4 96.6592 195.4C96.6607 195.4 96.6622 195.4 96.6638 195.4C96.6653 195.4 96.6669 195.4 96.6685 195.4C96.67 195.4 96.6716 195.4 96.6731 195.4C96.6747 195.4 96.6763 195.4 96.6778 195.4C96.6794 195.4 96.681 195.4 96.6825 195.4C96.6841 195.4 96.6857 195.4 96.6872 195.4C96.6888 195.4 96.6904 195.4 96.692 195.4C96.6936 195.4 96.6951 195.4 96.6967 195.4C96.6983 195.4 96.6999 195.4 96.7015 195.4C96.7031 195.4 96.7047 195.4 96.7063 195.4C96.7079 195.4 96.7095 195.4 96.7111 195.4C96.7127 195.4 96.7143 195.4 96.7159 195.4C96.7175 195.4 96.7191 195.4 96.7207 195.4C96.7223 195.4 96.7239 195.4 96.7255 195.4C96.7272 195.4 96.7288 195.4 96.7304 195.4C96.732 195.4 96.7336 195.4 96.7353 195.4C96.7369 195.4 96.7385 195.4 96.7402 195.4C96.7418 195.4 96.7434 195.4 96.7451 195.4C96.7467 195.4 96.7483 195.4 96.75 195.4C96.7516 195.4 96.7533 195.4 96.7549 195.4C96.7566 195.4 96.7582 195.4 96.7599 195.4C96.7615 195.4 96.7632 195.4 96.7648 195.4C96.7665 195.4 96.7681 195.4 96.7698 195.4C96.7715 195.4 96.7731 195.4 96.7748 195.4C96.7765 195.4 96.7781 195.4 96.7798 195.4C96.7815 195.4 96.7832 195.4 96.7848 195.4C96.7865 195.4 96.7882 195.4 96.7899 195.4C96.7916 195.4 96.7932 195.4 96.7949 195.4C96.7966 195.4 96.7983 195.4 96.8 195.4C96.8017 195.4 96.8034 195.4 96.8051 195.4C96.8068 195.4 96.8085 195.4 96.8102 195.4C96.8119 195.4 96.8136 195.4 96.8153 195.4C96.817 195.4 96.8187 195.4 96.8204 195.4C96.8221 195.4 96.8239 195.4 96.8256 195.4C96.8273 195.4 96.829 195.4 96.8307 195.4C96.8325 195.4 96.8342 195.4 96.8359 195.4C96.8377 195.4 96.8394 195.4 96.8411 195.4C96.8428 195.4 96.8446 195.4 96.8463 195.4C96.8481 195.4 96.8498 195.4 96.8515 195.4C96.8533 195.4 96.855 195.4 96.8568 195.4C96.8585 195.4 96.8603 195.4 96.862 195.4C96.8638 195.4 96.8655 195.4 96.8673 195.4C96.8691 195.4 96.8708 195.4 96.8726 195.4C96.8744 195.4 96.8761 195.4 96.8779 195.4C96.8797 195.4 96.8814 195.4 96.8832 195.4C96.885 195.4 96.8868 195.4 96.8885 195.4C96.8903 195.4 96.8921 195.4 96.8939 195.4C96.8957 195.4 96.8975 195.4 96.8992 195.4C96.901 195.4 96.9028 195.4 96.9046 195.4C96.9064 195.4 96.9082 195.4 96.91 195.4C96.9118 195.4 96.9136 195.4 96.9154 195.4C96.9172 195.4 96.919 195.4 96.9208 195.4C96.9226 195.4 96.9245 195.4 96.9263 195.4C96.9281 195.4 96.9299 195.4 96.9317 195.4C96.9335 195.4 96.9354 195.4 96.9372 195.4C96.939 195.4 96.9408 195.4 96.9427 195.4C96.9445 195.4 96.9463 195.4 96.9482 195.4C96.95 195.4 96.9518 195.4 96.9537 195.4C96.9555 195.4 96.9574 195.4 96.9592 195.4C96.9611 195.4 96.9629 195.4 96.9648 195.4C96.9666 195.4 96.9685 195.4 96.9703 195.4C96.9722 195.4 96.974 195.4 96.9759 195.4C96.9777 195.4 96.9796 195.4 96.9815 195.4C96.9833 195.4 96.9852 195.4 96.9871 195.4C96.989 195.4 96.9908 195.4 96.9927 195.4C96.9946 195.4 96.9965 195.4 96.9983 195.4C97.0002 195.4 97.0021 195.4 97.004 195.4C97.0059 195.4 97.0078 195.4 97.0097 195.4C97.0115 195.4 97.0134 195.4 97.0153 195.4C97.0172 195.4 97.0191 195.4 97.021 195.4C97.0229 195.4 97.0248 195.4 97.0267 195.4C97.0286 195.4 97.0306 195.4 97.0325 195.4C97.0344 195.4 97.0363 195.4 97.0382 195.4C97.0401 195.4 97.042 195.4 97.044 195.4C97.0459 195.4 97.0478 195.4 97.0497 195.4C97.0517 195.4 97.0536 195.4 97.0555 195.4C97.0575 195.4 97.0594 195.4 97.0613 195.4C97.0633 195.4 97.0652 195.4 97.0671 195.4C97.0691 195.4 97.071 195.4 97.073 195.4C97.0749 195.4 97.0769 195.4 97.0788 195.4C97.0808 195.4 97.0827 195.4 97.0847 195.4C97.0867 195.4 97.0886 195.4 97.0906 195.4C97.0925 195.4 97.0945 195.4 97.0965 195.4C97.0984 195.4 97.1004 195.4 97.1024 195.4C97.1043 195.4 97.1063 195.4 97.1083 195.4C97.1103 195.4 97.1123 195.4 97.1142 195.4C97.1162 195.4 97.1182 195.4 97.1202 195.4C97.1222 195.4 97.1242 195.4 97.1262 195.4C97.1282 195.4 97.1302 195.4 97.1322 195.4C97.1342 195.4 97.1362 195.4 97.1382 195.4C97.1402 195.4 97.1422 195.4 97.1442 195.4C97.1462 195.4 97.1482 195.4 97.1502 195.4C97.1522 195.4 97.1542 195.4 97.1563 195.4C97.1583 195.4 97.1603 195.4 97.1623 195.4C97.1643 195.4 97.1664 195.4 97.1684 195.4C97.1704 195.4 97.1725 195.4 97.1745 195.4C97.1765 195.4 97.1786 195.4 97.1806 195.4C97.1826 195.4 97.1847 195.4 97.1867 195.4C97.1888 195.4 97.1908 195.4 97.1929 195.4C97.1949 195.4 97.197 195.4 97.199 195.4C97.2011 195.4 97.2031 195.4 97.2052 195.4C97.2072 195.4 97.2093 195.4 97.2114 195.4C97.2134 195.4 97.2155 195.4 97.2176 195.4C97.2196 195.4 97.2217 195.4 97.2238 195.4C97.2259 195.4 97.2279 195.4 97.23 195.4C97.2321 195.4 97.2342 195.4 97.2363 195.4C97.2383 195.4 97.2404 195.4 97.2425 195.4C97.2446 195.4 97.2467 195.4 97.2488 195.4C97.2509 195.4 97.253 195.4 97.2551 195.4C97.2572 195.4 97.2593 195.4 97.2614 195.4C97.2635 195.4 97.2656 195.4 97.2677 195.4C97.2698 195.4 97.2719 195.4 97.274 195.4C97.2762 195.4 97.2783 195.4 97.2804 195.4C97.2825 195.4 97.2846 195.4 97.2868 195.4C97.2889 195.4 97.291 195.4 97.2931 195.4C97.2953 195.4 97.2974 195.4 97.2995 195.4C97.3017 195.4 97.3038 195.4 97.306 195.4C97.3081 195.4 97.3102 195.4 97.3124 195.4C97.3145 195.4 97.3167 195.4 97.3188 195.4C97.321 195.4 97.3231 195.4 97.3253 195.4C97.3274 195.4 97.3296 195.4 97.3318 195.4C97.3339 195.4 97.3361 195.4 97.3383 195.4C97.3404 195.4 97.3426 195.4 97.3448 195.4C97.3469 195.4 97.3491 195.4 97.3513 195.4C97.3535 195.4 97.3556 195.4 97.3578 195.4C97.36 195.4 97.3622 195.4 97.3644 195.4C97.3666 195.4 97.3687 195.4 97.3709 195.4C97.3731 195.4 97.3753 195.4 97.3775 195.4C97.3797 195.4 97.3819 195.4 97.3841 195.4C97.3863 195.4 97.3885 195.4 97.3907 195.4C97.3929 195.4 97.3951 195.4 97.3973 195.4C97.3996 195.4 97.4018 195.4 97.404 195.4C97.4062 195.4 97.4084 195.4 97.4106 195.4C97.4129 195.4 97.4151 195.4 97.4173 195.4C97.4195 195.4 97.4218 195.4 97.424 195.4C97.4262 195.4 97.4285 195.4 97.4307 195.4C97.4329 195.4 97.4352 195.4 97.4374 195.4C97.4397 195.4 97.4419 195.4 97.4442 195.4C97.4464 195.4 97.4487 195.4 97.4509 195.4C97.4532 195.4 97.4554 195.4 97.4577 195.4C97.4599 195.4 97.4622 195.4 97.4645 195.4C97.4667 195.4 97.469 195.4 97.4712 195.4C97.4735 195.4 97.4758 195.4 97.4781 195.4C97.4803 195.4 97.4826 195.4 97.4849 195.4C97.4872 195.4 97.4894 195.4 97.4917 195.4C97.494 195.4 97.4963 195.4 97.4986 195.4C97.5009 195.4 97.5032 195.4 97.5055 195.4C97.5077 195.4 97.51 195.4 97.5123 195.4C97.5146 195.4 97.5169 195.4 97.5192 195.4C97.5215 195.4 97.5238 195.4 97.5262 195.4C97.5285 195.4 97.5308 195.4 97.5331 195.4C97.5354 195.4 97.5377 195.4 97.54 195.4C97.5424 195.4 97.5447 195.4 97.547 195.4C97.5493 195.4 97.5516 195.4 97.554 195.4C97.5563 195.4 97.5586 195.4 97.561 195.4C97.5633 195.4 97.5656 195.4 97.568 195.4C97.5703 195.4 97.5727 195.4 97.575 195.4C97.5773 195.4 97.5797 195.4 97.582 195.4C97.5844 195.4 97.5867 195.4 97.5891 195.4C97.5914 195.4 97.5938 195.4 97.5962 195.4C97.5985 195.4 97.6009 195.4 97.6032 195.4C97.6056 195.4 97.608 195.4 97.6103 195.4C97.6127 195.4 97.6151 195.4 97.6175 195.4C97.6198 195.4 97.6222 195.4 97.6246 195.4C97.627 195.4 97.6294 195.4 97.6317 195.4C97.6341 195.4 97.6365 195.4 97.6389 195.4C97.6413 195.4 97.6437 195.4 97.6461 195.4C97.6485 195.4 97.6509 195.4 97.6533 195.4C97.6557 195.4 97.6581 195.4 97.6605 195.4C97.6629 195.4 97.6653 195.4 97.6677 195.4C97.6701 195.4 97.6725 195.4 97.6749 195.4C97.6773 195.4 97.6798 195.4 97.6822 195.4C97.6846 195.4 97.687 195.4 97.6895 195.4C97.6919 195.4 97.6943 195.4 97.6967 195.4C97.6992 195.4 97.7016 195.4 97.704 195.4C97.7065 195.4 97.7089 195.4 97.7113 195.4C97.7138 195.4 97.7162 195.4 97.7187 195.4C97.7211 195.4 97.7236 195.4 97.726 195.4C97.7285 195.4 97.7309 195.4 97.7334 195.4C97.7358 195.4 97.7383 195.4 97.7408 195.4C97.7432 195.4 97.7457 195.4 97.7481 195.4C97.7506 195.4 97.7531 195.4 97.7556 195.4C97.758 195.4 97.7605 195.4 97.763 195.4C97.7654 195.4 97.7679 195.4 97.7704 195.4C97.7729 195.4 97.7754 195.4 97.7779 195.4C97.7803 195.4 97.7828 195.4 97.7853 195.4C97.7878 195.4 97.7903 195.4 97.7928 195.4C97.7953 195.4 97.7978 195.4 97.8003 195.4C97.8028 195.4 97.8053 195.4 97.8078 195.4C97.8103 195.4 97.8128 195.4 97.8153 195.4C97.8179 195.4 97.8204 195.4 97.8229 195.4C97.8254 195.4 97.8279 195.4 97.8304 195.4C97.833 195.4 97.8355 195.4 97.838 195.4C97.8405 195.4 97.8431 195.4 97.8456 195.4C97.8481 195.4 97.8507 195.4 97.8532 195.4C97.8557 195.4 97.8583 195.4 97.8608 195.4C97.8634 195.4 97.8659 195.4 97.8685 195.4C97.871 195.4 97.8736 195.4 97.8761 195.4C97.8787 195.4 97.8812 195.4 97.8838 195.4C97.8863 195.4 97.8889 195.4 97.8915 195.4C97.894 195.4 97.8966 195.4 97.8991 195.4C97.9017 195.4 97.9043 195.4 97.9069 195.4C97.9094 195.4 97.912 195.4 97.9146 195.4C97.9172 195.4 97.9197 195.4 97.9223 195.4C97.9249 195.4 97.9275 195.4 97.9301 195.4C97.9327 195.4 97.9353 195.4 97.9379 195.4C97.9404 195.4 97.943 195.4 97.9456 195.4C97.9482 195.4 97.9508 195.4 97.9534 195.4C97.956 195.4 97.9586 195.4 97.9613 195.4C97.9639 195.4 97.9665 195.4 97.9691 195.4C97.9717 195.4 97.9743 195.4 97.9769 195.4C97.9796 195.4 97.9822 195.4 97.9848 195.4C97.9874 195.4 97.99 195.4 97.9927 195.4C97.9953 195.4 97.9979 195.4 98.0006 195.4C98.0032 195.4 98.0058 195.4 98.0085 195.4C98.0111 195.4 98.0138 195.4 98.0164 195.4C98.019 195.4 98.0217 195.4 98.0243 195.4C98.027 195.4 98.0296 195.4 98.0323 195.4C98.035 195.4 98.0376 195.4 98.0403 195.4C98.0429 195.4 98.0456 195.4 98.0483 195.4C98.0509 195.4 98.0536 195.4 98.0563 195.4C98.0589 195.4 98.0616 195.4 98.0643 195.4C98.0669 195.4 98.0696 195.4 98.0723 195.4C98.075 195.4 98.0777 195.4 98.0803 195.4C98.083 195.4 98.0857 195.4 98.0884 195.4C98.0911 195.4 98.0938 195.4 98.0965 195.4C98.0992 195.4 98.1019 195.4 98.1046 195.4C98.1073 195.4 98.11 195.4 98.1127 195.4C98.1154 195.4 98.1181 195.4 98.1208 195.4C98.1235 195.4 98.1262 195.4 98.1289 195.4C98.1317 195.4 98.1344 195.4 98.1371 195.4C98.1398 195.4 98.1425 195.4 98.1453 195.4C98.148 195.4 98.1507 195.4 98.1534 195.4C98.1562 195.4 98.1589 195.4 98.1616 195.4C98.1644 195.4 98.1671 195.4 98.1699 195.4C98.1726 195.4 98.1753 195.4 98.1781 195.4C98.1808 195.4 98.1836 195.4 98.1863 195.4C98.1891 195.4 98.1918 195.4 98.1946 195.4C98.1973 195.4 98.2001 195.4 98.2029 195.4C98.2056 195.4 98.2084 195.4 98.2112 195.4C98.2139 195.4 98.2167 195.4 98.2195 195.4C98.2222 195.4 98.225 195.4 98.2278 195.4C98.2306 195.4 98.2333 195.4 98.2361 195.4C98.2389 195.4 98.2417 195.4 98.2445 195.4C98.2473 195.4 98.25 195.4 98.2528 195.4C98.2556 195.4 98.2584 195.4 98.2612 195.4C98.264 195.4 98.2668 195.4 98.2696 195.4C98.2724 195.4 98.2752 195.4 98.278 195.4C98.2808 195.4 98.2836 195.4 98.2865 195.4C98.2893 195.4 98.2921 195.4 98.2949 195.4C98.2977 195.4 98.3005 195.4 98.3034 195.4C98.3062 195.4 98.309 195.4 98.3118 195.4C98.3147 195.4 98.3175 195.4 98.3203 195.4C98.3231 195.4 98.326 195.4 98.3288 195.4C98.3317 195.4 98.3345 195.4 98.3373 195.4C98.3402 195.4 98.343 195.4 98.3459 195.4C98.3487 195.4 98.3516 195.4 98.3544 195.4C98.3573 195.4 98.3601 195.4 98.363 195.4C98.3658 195.4 98.3687 195.4 98.3716 195.4C98.3744 195.4 98.3773 195.4 98.3802 195.4C98.383 195.4 98.3859 195.4 98.3888 195.4C98.3916 195.4 98.3945 195.4 98.3974 195.4C98.4003 195.4 98.4032 195.4 98.406 195.4C98.4089 195.4 98.4118 195.4 98.4147 195.4C98.4176 195.4 98.4205 195.4 98.4234 195.4C98.4263 195.4 98.4292 195.4 98.4321 195.4C98.435 195.4 98.4379 195.4 98.4408 195.4C98.4437 195.4 98.4466 195.4 98.4495 195.4C98.4524 195.4 98.4553 195.4 98.4582 195.4C98.4611 195.4 98.464 195.4 98.467 195.4C98.4699 195.4 98.4728 195.4 98.4757 195.4C98.4786 195.4 98.4816 195.4 98.4845 195.4C98.4874 195.4 98.4904 195.4 98.4933 195.4C98.4962 195.4 98.4992 195.4 98.5021 195.4C98.505 195.4 98.508 195.4 98.5109 195.4C98.5139 195.4 98.5168 195.4 98.5198 195.4C98.5227 195.4 98.5257 195.4 98.5286 195.4C98.5316 195.4 98.5345 195.4 98.5375 195.4C98.5404 195.4 98.5434 195.4 98.5464 195.4C98.5493 195.4 98.5523 195.4 98.5553 195.4C98.5582 195.4 98.5612 195.4 98.5642 195.4C98.5672 195.4 98.5701 195.4 98.5731 195.4C98.5761 195.4 98.5791 195.4 98.5821 195.4C98.585 195.4 98.588 195.4 98.591 195.4C98.594 195.4 98.597 195.4 98.6 195.4V191.4C98.597 191.4 98.594 191.4 98.591 191.4C98.588 191.4 98.585 191.4 98.5821 191.4C98.5791 191.4 98.5761 191.4 98.5731 191.4C98.5701 191.4 98.5672 191.4 98.5642 191.4C98.5612 191.4 98.5582 191.4 98.5553 191.4C98.5523 191.4 98.5493 191.4 98.5464 191.4C98.5434 191.4 98.5404 191.4 98.5375 191.4C98.5345 191.4 98.5316 191.4 98.5286 191.4C98.5257 191.4 98.5227 191.4 98.5198 191.4C98.5168 191.4 98.5139 191.4 98.5109 191.4C98.508 191.4 98.505 191.4 98.5021 191.4C98.4992 191.4 98.4962 191.4 98.4933 191.4C98.4904 191.4 98.4874 191.4 98.4845 191.4C98.4816 191.4 98.4786 191.4 98.4757 191.4C98.4728 191.4 98.4699 191.4 98.467 191.4C98.464 191.4 98.4611 191.4 98.4582 191.4C98.4553 191.4 98.4524 191.4 98.4495 191.4C98.4466 191.4 98.4437 191.4 98.4408 191.4C98.4379 191.4 98.435 191.4 98.4321 191.4C98.4292 191.4 98.4263 191.4 98.4234 191.4C98.4205 191.4 98.4176 191.4 98.4147 191.4C98.4118 191.4 98.4089 191.4 98.406 191.4C98.4032 191.4 98.4003 191.4 98.3974 191.4C98.3945 191.4 98.3916 191.4 98.3888 191.4C98.3859 191.4 98.383 191.4 98.3802 191.4C98.3773 191.4 98.3744 191.4 98.3716 191.4C98.3687 191.4 98.3658 191.4 98.363 191.4C98.3601 191.4 98.3573 191.4 98.3544 191.4C98.3516 191.4 98.3487 191.4 98.3459 191.4C98.343 191.4 98.3402 191.4 98.3373 191.4C98.3345 191.4 98.3317 191.4 98.3288 191.4C98.326 191.4 98.3231 191.4 98.3203 191.4C98.3175 191.4 98.3147 191.4 98.3118 191.4C98.309 191.4 98.3062 191.4 98.3034 191.4C98.3005 191.4 98.2977 191.4 98.2949 191.4C98.2921 191.4 98.2893 191.4 98.2865 191.4C98.2836 191.4 98.2808 191.4 98.278 191.4C98.2752 191.4 98.2724 191.4 98.2696 191.4C98.2668 191.4 98.264 191.4 98.2612 191.4C98.2584 191.4 98.2556 191.4 98.2528 191.4C98.25 191.4 98.2473 191.4 98.2445 191.4C98.2417 191.4 98.2389 191.4 98.2361 191.4C98.2333 191.4 98.2306 191.4 98.2278 191.4C98.225 191.4 98.2222 191.4 98.2195 191.4C98.2167 191.4 98.2139 191.4 98.2112 191.4C98.2084 191.4 98.2056 191.4 98.2029 191.4C98.2001 191.4 98.1973 191.4 98.1946 191.4C98.1918 191.4 98.1891 191.4 98.1863 191.4C98.1836 191.4 98.1808 191.4 98.1781 191.4C98.1753 191.4 98.1726 191.4 98.1699 191.4C98.1671 191.4 98.1644 191.4 98.1616 191.4C98.1589 191.4 98.1562 191.4 98.1534 191.4C98.1507 191.4 98.148 191.4 98.1453 191.4C98.1425 191.4 98.1398 191.4 98.1371 191.4C98.1344 191.4 98.1317 191.4 98.1289 191.4C98.1262 191.4 98.1235 191.4 98.1208 191.4C98.1181 191.4 98.1154 191.4 98.1127 191.4C98.11 191.4 98.1073 191.4 98.1046 191.4C98.1019 191.4 98.0992 191.4 98.0965 191.4C98.0938 191.4 98.0911 191.4 98.0884 191.4C98.0857 191.4 98.083 191.4 98.0803 191.4C98.0777 191.4 98.075 191.4 98.0723 191.4C98.0696 191.4 98.0669 191.4 98.0643 191.4C98.0616 191.4 98.0589 191.4 98.0563 191.4C98.0536 191.4 98.0509 191.4 98.0483 191.4C98.0456 191.4 98.0429 191.4 98.0403 191.4C98.0376 191.4 98.035 191.4 98.0323 191.4C98.0296 191.4 98.027 191.4 98.0243 191.4C98.0217 191.4 98.019 191.4 98.0164 191.4C98.0138 191.4 98.0111 191.4 98.0085 191.4C98.0058 191.4 98.0032 191.4 98.0006 191.4C97.9979 191.4 97.9953 191.4 97.9927 191.4C97.99 191.4 97.9874 191.4 97.9848 191.4C97.9822 191.4 97.9796 191.4 97.9769 191.4C97.9743 191.4 97.9717 191.4 97.9691 191.4C97.9665 191.4 97.9639 191.4 97.9613 191.4C97.9586 191.4 97.956 191.4 97.9534 191.4C97.9508 191.4 97.9482 191.4 97.9456 191.4C97.943 191.4 97.9404 191.4 97.9379 191.4C97.9353 191.4 97.9327 191.4 97.9301 191.4C97.9275 191.4 97.9249 191.4 97.9223 191.4C97.9197 191.4 97.9172 191.4 97.9146 191.4C97.912 191.4 97.9094 191.4 97.9069 191.4C97.9043 191.4 97.9017 191.4 97.8991 191.4C97.8966 191.4 97.894 191.4 97.8915 191.4C97.8889 191.4 97.8863 191.4 97.8838 191.4C97.8812 191.4 97.8787 191.4 97.8761 191.4C97.8736 191.4 97.871 191.4 97.8685 191.4C97.8659 191.4 97.8634 191.4 97.8608 191.4C97.8583 191.4 97.8557 191.4 97.8532 191.4C97.8507 191.4 97.8481 191.4 97.8456 191.4C97.8431 191.4 97.8405 191.4 97.838 191.4C97.8355 191.4 97.833 191.4 97.8304 191.4C97.8279 191.4 97.8254 191.4 97.8229 191.4C97.8204 191.4 97.8179 191.4 97.8153 191.4C97.8128 191.4 97.8103 191.4 97.8078 191.4C97.8053 191.4 97.8028 191.4 97.8003 191.4C97.7978 191.4 97.7953 191.4 97.7928 191.4C97.7903 191.4 97.7878 191.4 97.7853 191.4C97.7828 191.4 97.7803 191.4 97.7779 191.4C97.7754 191.4 97.7729 191.4 97.7704 191.4C97.7679 191.4 97.7654 191.4 97.763 191.4C97.7605 191.4 97.758 191.4 97.7556 191.4C97.7531 191.4 97.7506 191.4 97.7481 191.4C97.7457 191.4 97.7432 191.4 97.7408 191.4C97.7383 191.4 97.7358 191.4 97.7334 191.4C97.7309 191.4 97.7285 191.4 97.726 191.4C97.7236 191.4 97.7211 191.4 97.7187 191.4C97.7162 191.4 97.7138 191.4 97.7113 191.4C97.7089 191.4 97.7065 191.4 97.704 191.4C97.7016 191.4 97.6992 191.4 97.6967 191.4C97.6943 191.4 97.6919 191.4 97.6895 191.4C97.687 191.4 97.6846 191.4 97.6822 191.4C97.6798 191.4 97.6773 191.4 97.6749 191.4C97.6725 191.4 97.6701 191.4 97.6677 191.4C97.6653 191.4 97.6629 191.4 97.6605 191.4C97.6581 191.4 97.6557 191.4 97.6533 191.4C97.6509 191.4 97.6485 191.4 97.6461 191.4C97.6437 191.4 97.6413 191.4 97.6389 191.4C97.6365 191.4 97.6341 191.4 97.6317 191.4C97.6294 191.4 97.627 191.4 97.6246 191.4C97.6222 191.4 97.6198 191.4 97.6175 191.4C97.6151 191.4 97.6127 191.4 97.6103 191.4C97.608 191.4 97.6056 191.4 97.6032 191.4C97.6009 191.4 97.5985 191.4 97.5962 191.4C97.5938 191.4 97.5914 191.4 97.5891 191.4C97.5867 191.4 97.5844 191.4 97.582 191.4C97.5797 191.4 97.5773 191.4 97.575 191.4C97.5727 191.4 97.5703 191.4 97.568 191.4C97.5656 191.4 97.5633 191.4 97.561 191.4C97.5586 191.4 97.5563 191.4 97.554 191.4C97.5516 191.4 97.5493 191.4 97.547 191.4C97.5447 191.4 97.5424 191.4 97.54 191.4C97.5377 191.4 97.5354 191.4 97.5331 191.4C97.5308 191.4 97.5285 191.4 97.5262 191.4C97.5238 191.4 97.5215 191.4 97.5192 191.4C97.5169 191.4 97.5146 191.4 97.5123 191.4C97.51 191.4 97.5077 191.4 97.5055 191.4C97.5032 191.4 97.5009 191.4 97.4986 191.4C97.4963 191.4 97.494 191.4 97.4917 191.4C97.4894 191.4 97.4872 191.4 97.4849 191.4C97.4826 191.4 97.4803 191.4 97.4781 191.4C97.4758 191.4 97.4735 191.4 97.4712 191.4C97.469 191.4 97.4667 191.4 97.4645 191.4C97.4622 191.4 97.4599 191.4 97.4577 191.4C97.4554 191.4 97.4532 191.4 97.4509 191.4C97.4487 191.4 97.4464 191.4 97.4442 191.4C97.4419 191.4 97.4397 191.4 97.4374 191.4C97.4352 191.4 97.4329 191.4 97.4307 191.4C97.4285 191.4 97.4262 191.4 97.424 191.4C97.4218 191.4 97.4195 191.4 97.4173 191.4C97.4151 191.4 97.4129 191.4 97.4106 191.4C97.4084 191.4 97.4062 191.4 97.404 191.4C97.4018 191.4 97.3996 191.4 97.3973 191.4C97.3951 191.4 97.3929 191.4 97.3907 191.4C97.3885 191.4 97.3863 191.4 97.3841 191.4C97.3819 191.4 97.3797 191.4 97.3775 191.4C97.3753 191.4 97.3731 191.4 97.3709 191.4C97.3687 191.4 97.3666 191.4 97.3644 191.4C97.3622 191.4 97.36 191.4 97.3578 191.4C97.3556 191.4 97.3535 191.4 97.3513 191.4C97.3491 191.4 97.3469 191.4 97.3448 191.4C97.3426 191.4 97.3404 191.4 97.3383 191.4C97.3361 191.4 97.3339 191.4 97.3318 191.4C97.3296 191.4 97.3274 191.4 97.3253 191.4C97.3231 191.4 97.321 191.4 97.3188 191.4C97.3167 191.4 97.3145 191.4 97.3124 191.4C97.3102 191.4 97.3081 191.4 97.306 191.4C97.3038 191.4 97.3017 191.4 97.2995 191.4C97.2974 191.4 97.2953 191.4 97.2931 191.4C97.291 191.4 97.2889 191.4 97.2868 191.4C97.2846 191.4 97.2825 191.4 97.2804 191.4C97.2783 191.4 97.2762 191.4 97.274 191.4C97.2719 191.4 97.2698 191.4 97.2677 191.4C97.2656 191.4 97.2635 191.4 97.2614 191.4C97.2593 191.4 97.2572 191.4 97.2551 191.4C97.253 191.4 97.2509 191.4 97.2488 191.4C97.2467 191.4 97.2446 191.4 97.2425 191.4C97.2404 191.4 97.2383 191.4 97.2363 191.4C97.2342 191.4 97.2321 191.4 97.23 191.4C97.2279 191.4 97.2259 191.4 97.2238 191.4C97.2217 191.4 97.2196 191.4 97.2176 191.4C97.2155 191.4 97.2134 191.4 97.2114 191.4C97.2093 191.4 97.2072 191.4 97.2052 191.4C97.2031 191.4 97.2011 191.4 97.199 191.4C97.197 191.4 97.1949 191.4 97.1929 191.4C97.1908 191.4 97.1888 191.4 97.1867 191.4C97.1847 191.4 97.1826 191.4 97.1806 191.4C97.1786 191.4 97.1765 191.4 97.1745 191.4C97.1725 191.4 97.1704 191.4 97.1684 191.4C97.1664 191.4 97.1643 191.4 97.1623 191.4C97.1603 191.4 97.1583 191.4 97.1563 191.4C97.1542 191.4 97.1522 191.4 97.1502 191.4C97.1482 191.4 97.1462 191.4 97.1442 191.4C97.1422 191.4 97.1402 191.4 97.1382 191.4C97.1362 191.4 97.1342 191.4 97.1322 191.4C97.1302 191.4 97.1282 191.4 97.1262 191.4C97.1242 191.4 97.1222 191.4 97.1202 191.4C97.1182 191.4 97.1162 191.4 97.1142 191.4C97.1123 191.4 97.1103 191.4 97.1083 191.4C97.1063 191.4 97.1043 191.4 97.1024 191.4C97.1004 191.4 97.0984 191.4 97.0965 191.4C97.0945 191.4 97.0925 191.4 97.0906 191.4C97.0886 191.4 97.0867 191.4 97.0847 191.4C97.0827 191.4 97.0808 191.4 97.0788 191.4C97.0769 191.4 97.0749 191.4 97.073 191.4C97.071 191.4 97.0691 191.4 97.0671 191.4C97.0652 191.4 97.0633 191.4 97.0613 191.4C97.0594 191.4 97.0575 191.4 97.0555 191.4C97.0536 191.4 97.0517 191.4 97.0497 191.4C97.0478 191.4 97.0459 191.4 97.044 191.4C97.042 191.4 97.0401 191.4 97.0382 191.4C97.0363 191.4 97.0344 191.4 97.0325 191.4C97.0306 191.4 97.0286 191.4 97.0267 191.4C97.0248 191.4 97.0229 191.4 97.021 191.4C97.0191 191.4 97.0172 191.4 97.0153 191.4C97.0134 191.4 97.0115 191.4 97.0097 191.4C97.0078 191.4 97.0059 191.4 97.004 191.4C97.0021 191.4 97.0002 191.4 96.9983 191.4C96.9965 191.4 96.9946 191.4 96.9927 191.4C96.9908 191.4 96.989 191.4 96.9871 191.4C96.9852 191.4 96.9833 191.4 96.9815 191.4C96.9796 191.4 96.9777 191.4 96.9759 191.4C96.974 191.4 96.9722 191.4 96.9703 191.4C96.9685 191.4 96.9666 191.4 96.9648 191.4C96.9629 191.4 96.9611 191.4 96.9592 191.4C96.9574 191.4 96.9555 191.4 96.9537 191.4C96.9518 191.4 96.95 191.4 96.9482 191.4C96.9463 191.4 96.9445 191.4 96.9427 191.4C96.9408 191.4 96.939 191.4 96.9372 191.4C96.9354 191.4 96.9335 191.4 96.9317 191.4C96.9299 191.4 96.9281 191.4 96.9263 191.4C96.9245 191.4 96.9226 191.4 96.9208 191.4C96.919 191.4 96.9172 191.4 96.9154 191.4C96.9136 191.4 96.9118 191.4 96.91 191.4C96.9082 191.4 96.9064 191.4 96.9046 191.4C96.9028 191.4 96.901 191.4 96.8992 191.4C96.8975 191.4 96.8957 191.4 96.8939 191.4C96.8921 191.4 96.8903 191.4 96.8885 191.4C96.8868 191.4 96.885 191.4 96.8832 191.4C96.8814 191.4 96.8797 191.4 96.8779 191.4C96.8761 191.4 96.8744 191.4 96.8726 191.4C96.8708 191.4 96.8691 191.4 96.8673 191.4C96.8655 191.4 96.8638 191.4 96.862 191.4C96.8603 191.4 96.8585 191.4 96.8568 191.4C96.855 191.4 96.8533 191.4 96.8515 191.4C96.8498 191.4 96.8481 191.4 96.8463 191.4C96.8446 191.4 96.8428 191.4 96.8411 191.4C96.8394 191.4 96.8377 191.4 96.8359 191.4C96.8342 191.4 96.8325 191.4 96.8307 191.4C96.829 191.4 96.8273 191.4 96.8256 191.4C96.8239 191.4 96.8221 191.4 96.8204 191.4C96.8187 191.4 96.817 191.4 96.8153 191.4C96.8136 191.4 96.8119 191.4 96.8102 191.4C96.8085 191.4 96.8068 191.4 96.8051 191.4C96.8034 191.4 96.8017 191.4 96.8 191.4C96.7983 191.4 96.7966 191.4 96.7949 191.4C96.7932 191.4 96.7916 191.4 96.7899 191.4C96.7882 191.4 96.7865 191.4 96.7848 191.4C96.7832 191.4 96.7815 191.4 96.7798 191.4C96.7781 191.4 96.7765 191.4 96.7748 191.4C96.7731 191.4 96.7715 191.4 96.7698 191.4C96.7681 191.4 96.7665 191.4 96.7648 191.4C96.7632 191.4 96.7615 191.4 96.7599 191.4C96.7582 191.4 96.7566 191.4 96.7549 191.4C96.7533 191.4 96.7516 191.4 96.75 191.4C96.7483 191.4 96.7467 191.4 96.7451 191.4C96.7434 191.4 96.7418 191.4 96.7402 191.4C96.7385 191.4 96.7369 191.4 96.7353 191.4C96.7336 191.4 96.732 191.4 96.7304 191.4C96.7288 191.4 96.7272 191.4 96.7255 191.4C96.7239 191.4 96.7223 191.4 96.7207 191.4C96.7191 191.4 96.7175 191.4 96.7159 191.4C96.7143 191.4 96.7127 191.4 96.7111 191.4C96.7095 191.4 96.7079 191.4 96.7063 191.4C96.7047 191.4 96.7031 191.4 96.7015 191.4C96.6999 191.4 96.6983 191.4 96.6967 191.4C96.6951 191.4 96.6936 191.4 96.692 191.4C96.6904 191.4 96.6888 191.4 96.6872 191.4C96.6857 191.4 96.6841 191.4 96.6825 191.4C96.681 191.4 96.6794 191.4 96.6778 191.4C96.6763 191.4 96.6747 191.4 96.6731 191.4C96.6716 191.4 96.67 191.4 96.6685 191.4C96.6669 191.4 96.6653 191.4 96.6638 191.4C96.6622 191.4 96.6607 191.4 96.6592 191.4C96.6576 191.4 96.6561 191.4 96.6545 191.4C96.653 191.4 96.6514 191.4 96.6499 191.4C96.6484 191.4 96.6468 191.4 96.6453 191.4C96.6438 191.4 96.6423 191.4 96.6407 191.4C96.6392 191.4 96.6377 191.4 96.6362 191.4C96.6346 191.4 96.6331 191.4 96.6316 191.4C96.6301 191.4 96.6286 191.4 96.6271 191.4C96.6256 191.4 96.6241 191.4 96.6226 191.4C96.6211 191.4 96.6195 191.4 96.618 191.4C96.6166 191.4 96.6151 191.4 96.6136 191.4C96.6121 191.4 96.6106 191.4 96.6091 191.4C96.6076 191.4 96.6061 191.4 96.6046 191.4C96.6031 191.4 96.6017 191.4 96.6002 191.4C96.5987 191.4 96.5972 191.4 96.5957 191.4C96.5943 191.4 96.5928 191.4 96.5913 191.4C96.5899 191.4 96.5884 191.4 96.5869 191.4C96.5855 191.4 96.584 191.4 96.5826 191.4C96.5811 191.4 96.5796 191.4 96.5782 191.4C96.5767 191.4 96.5753 191.4 96.5738 191.4C96.5724 191.4 96.5709 191.4 96.5695 191.4C96.568 191.4 96.5666 191.4 96.5652 191.4C96.5637 191.4 96.5623 191.4 96.5609 191.4C96.5594 191.4 96.558 191.4 96.5566 191.4C96.5551 191.4 96.5537 191.4 96.5523 191.4C96.5509 191.4 96.5494 191.4 96.548 191.4C96.5466 191.4 96.5452 191.4 96.5438 191.4C96.5424 191.4 96.541 191.4 96.5396 191.4C96.5381 191.4 96.5367 191.4 96.5353 191.4C96.5339 191.4 96.5325 191.4 96.5311 191.4C96.5297 191.4 96.5283 191.4 96.527 191.4C96.5256 191.4 96.5242 191.4 96.5228 191.4C96.5214 191.4 96.52 191.4 96.5186 191.4C96.5172 191.4 96.5159 191.4 96.5145 191.4C96.5131 191.4 96.5117 191.4 96.5104 191.4C96.509 191.4 96.5076 191.4 96.5063 191.4C96.5049 191.4 96.5035 191.4 96.5022 191.4C96.5008 191.4 96.4994 191.4 96.4981 191.4C96.4967 191.4 96.4954 191.4 96.494 191.4C96.4927 191.4 96.4913 191.4 96.49 191.4C96.4886 191.4 96.4873 191.4 96.4859 191.4C96.4846 191.4 96.4833 191.4 96.4819 191.4C96.4806 191.4 96.4792 191.4 96.4779 191.4C96.4766 191.4 96.4753 191.4 96.4739 191.4C96.4726 191.4 96.4713 191.4 96.47 191.4C96.4686 191.4 96.4673 191.4 96.466 191.4C96.4647 191.4 96.4634 191.4 96.4621 191.4C96.4607 191.4 96.4594 191.4 96.4581 191.4C96.4568 191.4 96.4555 191.4 96.4542 191.4C96.4529 191.4 96.4516 191.4 96.4503 191.4C96.449 191.4 96.4477 191.4 96.4464 191.4C96.4452 191.4 96.4439 191.4 96.4426 191.4C96.4413 191.4 96.44 191.4 96.4387 191.4C96.4374 191.4 96.4362 191.4 96.4349 191.4C96.4336 191.4 96.4323 191.4 96.4311 191.4C96.4298 191.4 96.4285 191.4 96.4273 191.4C96.426 191.4 96.4247 191.4 96.4235 191.4C96.4222 191.4 96.421 191.4 96.4197 191.4C96.4185 191.4 96.4172 191.4 96.416 191.4C96.4147 191.4 96.4135 191.4 96.4122 191.4C96.411 191.4 96.4097 191.4 96.4085 191.4C96.4072 191.4 96.406 191.4 96.4048 191.4C96.4035 191.4 96.4023 191.4 96.4011 191.4C96.3998 191.4 96.3986 191.4 96.3974 191.4C96.3962 191.4 96.3949 191.4 96.3937 191.4C96.3925 191.4 96.3913 191.4 96.3901 191.4C96.3889 191.4 96.3876 191.4 96.3864 191.4C96.3852 191.4 96.384 191.4 96.3828 191.4C96.3816 191.4 96.3804 191.4 96.3792 191.4C96.378 191.4 96.3768 191.4 96.3756 191.4C96.3744 191.4 96.3732 191.4 96.372 191.4C96.3709 191.4 96.3697 191.4 96.3685 191.4C96.3673 191.4 96.3661 191.4 96.3649 191.4C96.3638 191.4 96.3626 191.4 96.3614 191.4C96.3602 191.4 96.3591 191.4 96.3579 191.4C96.3567 191.4 96.3556 191.4 96.3544 191.4C96.3532 191.4 96.3521 191.4 96.3509 191.4C96.3498 191.4 96.3486 191.4 96.3474 191.4C96.3463 191.4 96.3451 191.4 96.344 191.4C96.3428 191.4 96.3417 191.4 96.3406 191.4C96.3394 191.4 96.3383 191.4 96.3371 191.4C96.336 191.4 96.3349 191.4 96.3337 191.4C96.3326 191.4 96.3315 191.4 96.3303 191.4C96.3292 191.4 96.3281 191.4 96.327 191.4C96.3258 191.4 96.3247 191.4 96.3236 191.4C96.3225 191.4 96.3214 191.4 96.3202 191.4C96.3191 191.4 96.318 191.4 96.3169 191.4C96.3158 191.4 96.3147 191.4 96.3136 191.4C96.3125 191.4 96.3114 191.4 96.3103 191.4C96.3092 191.4 96.3081 191.4 96.307 191.4C96.3059 191.4 96.3048 191.4 96.3037 191.4C96.3027 191.4 96.3016 191.4 96.3005 191.4C96.2994 191.4 96.2983 191.4 96.2973 191.4C96.2962 191.4 96.2951 191.4 96.294 191.4C96.293 191.4 96.2919 191.4 96.2908 191.4C96.2898 191.4 96.2887 191.4 96.2876 191.4C96.2866 191.4 96.2855 191.4 96.2844 191.4C96.2834 191.4 96.2823 191.4 96.2813 191.4C96.2802 191.4 96.2792 191.4 96.2781 191.4C96.2771 191.4 96.276 191.4 96.275 191.4C96.274 191.4 96.2729 191.4 96.2719 191.4C96.2708 191.4 96.2698 191.4 96.2688 191.4C96.2678 191.4 96.2667 191.4 96.2657 191.4C96.2647 191.4 96.2636 191.4 96.2626 191.4C96.2616 191.4 96.2606 191.4 96.2596 191.4C96.2586 191.4 96.2575 191.4 96.2565 191.4C96.2555 191.4 96.2545 191.4 96.2535 191.4C96.2525 191.4 96.2515 191.4 96.2505 191.4C96.2495 191.4 96.2485 191.4 96.2475 191.4C96.2465 191.4 96.2455 191.4 96.2445 191.4C96.2435 191.4 96.2425 191.4 96.2416 191.4C96.2406 191.4 96.2396 191.4 96.2386 191.4C96.2376 191.4 96.2366 191.4 96.2357 191.4C96.2347 191.4 96.2337 191.4 96.2327 191.4C96.2318 191.4 96.2308 191.4 96.2298 191.4C96.2289 191.4 96.2279 191.4 96.227 191.4C96.226 191.4 96.225 191.4 96.2241 191.4C96.2231 191.4 96.2222 191.4 96.2212 191.4C96.2203 191.4 96.2193 191.4 96.2184 191.4C96.2174 191.4 96.2165 191.4 96.2156 191.4C96.2146 191.4 96.2137 191.4 96.2127 191.4C96.2118 191.4 96.2109 191.4 96.2099 191.4C96.209 191.4 96.2081 191.4 96.2072 191.4C96.2062 191.4 96.2053 191.4 96.2044 191.4C96.2035 191.4 96.2026 191.4 96.2016 191.4C96.2007 191.4 96.1998 191.4 96.1989 191.4C96.198 191.4 96.1971 191.4 96.1962 191.4C96.1953 191.4 96.1944 191.4 96.1935 191.4C96.1926 191.4 96.1917 191.4 96.1908 191.4C96.1899 191.4 96.189 191.4 96.1881 191.4C96.1872 191.4 96.1863 191.4 96.1855 191.4C96.1846 191.4 96.1837 191.4 96.1828 191.4C96.1819 191.4 96.1811 191.4 96.1802 191.4C96.1793 191.4 96.1784 191.4 96.1776 191.4C96.1767 191.4 96.1758 191.4 96.175 191.4C96.1741 191.4 96.1732 191.4 96.1724 191.4C96.1715 191.4 96.1707 191.4 96.1698 191.4C96.169 191.4 96.1681 191.4 96.1673 191.4C96.1664 191.4 96.1656 191.4 96.1647 191.4C96.1639 191.4 96.163 191.4 96.1622 191.4C96.1614 191.4 96.1605 191.4 96.1597 191.4C96.1589 191.4 96.158 191.4 96.1572 191.4C96.1564 191.4 96.1556 191.4 96.1547 191.4C96.1539 191.4 96.1531 191.4 96.1523 191.4C96.1515 191.4 96.1506 191.4 96.1498 191.4C96.149 191.4 96.1482 191.4 96.1474 191.4C96.1466 191.4 96.1458 191.4 96.145 191.4C96.1442 191.4 96.1434 191.4 96.1426 191.4C96.1418 191.4 96.141 191.4 96.1402 191.4C96.1394 191.4 96.1386 191.4 96.1378 191.4C96.137 191.4 96.1363 191.4 96.1355 191.4C96.1347 191.4 96.1339 191.4 96.1331 191.4C96.1324 191.4 96.1316 191.4 96.1308 191.4C96.13 191.4 96.1293 191.4 96.1285 191.4C96.1277 191.4 96.127 191.4 96.1262 191.4C96.1254 191.4 96.1247 191.4 96.1239 191.4C96.1232 191.4 96.1224 191.4 96.1217 191.4C96.1209 191.4 96.1202 191.4 96.1194 191.4C96.1187 191.4 96.1179 191.4 96.1172 191.4C96.1164 191.4 96.1157 191.4 96.115 191.4C96.1142 191.4 96.1135 191.4 96.1128 191.4C96.112 191.4 96.1113 191.4 96.1106 191.4C96.1099 191.4 96.1091 191.4 96.1084 191.4C96.1077 191.4 96.107 191.4 96.1063 191.4C96.1055 191.4 96.1048 191.4 96.1041 191.4C96.1034 191.4 96.1027 191.4 96.102 191.4C96.1013 191.4 96.1006 191.4 96.0999 191.4C96.0992 191.4 96.0985 191.4 96.0978 191.4C96.0971 191.4 96.0964 191.4 96.0957 191.4C96.095 191.4 96.0943 191.4 96.0936 191.4C96.093 191.4 96.0923 191.4 96.0916 191.4C96.0909 191.4 96.0902 191.4 96.0896 191.4C96.0889 191.4 96.0882 191.4 96.0875 191.4C96.0869 191.4 96.0862 191.4 96.0855 191.4C96.0849 191.4 96.0842 191.4 96.0835 191.4C96.0829 191.4 96.0822 191.4 96.0816 191.4C96.0809 191.4 96.0803 191.4 96.0796 191.4C96.079 191.4 96.0783 191.4 96.0777 191.4C96.077 191.4 96.0764 191.4 96.0757 191.4C96.0751 191.4 96.0745 191.4 96.0738 191.4C96.0732 191.4 96.0726 191.4 96.0719 191.4C96.0713 191.4 96.0707 191.4 96.0701 191.4C96.0694 191.4 96.0688 191.4 96.0682 191.4C96.0676 191.4 96.0669 191.4 96.0663 191.4C96.0657 191.4 96.0651 191.4 96.0645 191.4C96.0639 191.4 96.0633 191.4 96.0627 191.4C96.0621 191.4 96.0615 191.4 96.0609 191.4C96.0603 191.4 96.0597 191.4 96.0591 191.4C96.0585 191.4 96.0579 191.4 96.0573 191.4C96.0567 191.4 96.0561 191.4 96.0556 191.4C96.055 191.4 96.0544 191.4 96.0538 191.4C96.0532 191.4 96.0527 191.4 96.0521 191.4C96.0515 191.4 96.0509 191.4 96.0504 191.4C96.0498 191.4 96.0492 191.4 96.0487 191.4C96.0481 191.4 96.0475 191.4 96.047 191.4C96.0464 191.4 96.0459 191.4 96.0453 191.4C96.0448 191.4 96.0442 191.4 96.0437 191.4C96.0431 191.4 96.0426 191.4 96.042 191.4C96.0415 191.4 96.0409 191.4 96.0404 191.4C96.0399 191.4 96.0393 191.4 96.0388 191.4C96.0383 191.4 96.0377 191.4 96.0372 191.4C96.0367 191.4 96.0362 191.4 96.0356 191.4C96.0351 191.4 96.0346 191.4 96.0341 191.4C96.0335 191.4 96.033 191.4 96.0325 191.4C96.032 191.4 96.0315 191.4 96.031 191.4C96.0305 191.4 96.03 191.4 96.0295 191.4C96.029 191.4 96.0285 191.4 96.028 191.4C96.0275 191.4 96.027 191.4 96.0265 191.4C96.026 191.4 96.0255 191.4 96.025 191.4C96.0245 191.4 96.0241 191.4 96.0236 191.4C96.0231 191.4 96.0226 191.4 96.0221 191.4C96.0217 191.4 96.0212 191.4 96.0207 191.4C96.0202 191.4 96.0198 191.4 96.0193 191.4C96.0188 191.4 96.0184 191.4 96.0179 191.4C96.0174 191.4 96.017 191.4 96.0165 191.4C96.0161 191.4 96.0156 191.4 96.0152 191.4C96.0147 191.4 96.0143 191.4 96.0138 191.4C96.0134 191.4 96.0129 191.4 96.0125 191.4C96.012 191.4 96.0116 191.4 96.0112 191.4C96.0107 191.4 96.0103 191.4 96.0099 191.4C96.0094 191.4 96.009 191.4 96.0086 191.4C96.0082 191.4 96.0077 191.4 96.0073 191.4C96.0069 191.4 96.0065 191.4 96.0061 191.4C96.0056 191.4 96.0052 191.4 96.0048 191.4C96.0044 191.4 96.004 191.4 96.0036 191.4C96.0032 191.4 96.0028 191.4 96.0024 191.4C96.002 191.4 96.0016 191.4 96.0012 191.4C96.0008 191.4 96.0004 191.4 96 191.4V195.4ZM98.6 195.4C100.368 195.4 102.054 195.179 103.649 194.723L102.551 190.877C101.346 191.221 100.032 191.4 98.6 191.4V195.4ZM103.732 194.697C104.495 194.443 105.183 194.164 105.752 193.845C106.273 193.554 106.932 193.101 107.336 192.392L103.864 190.408C103.944 190.267 104.017 190.211 104 190.225C103.986 190.237 103.927 190.282 103.798 190.355C103.533 190.503 103.105 190.69 102.468 190.903L103.732 194.697ZM107.336 192.392C107.868 191.461 108 190.295 108 189.2H104C104 189.618 103.972 189.926 103.932 190.142C103.892 190.366 103.85 190.431 103.864 190.408L107.336 192.392ZM108 189.2V181.2H104V189.2H108ZM105.863 183.195L116.063 183.895L116.337 179.905L106.137 179.205L105.863 183.195ZM114.2 181.9V199.2H118.2V181.9H114.2ZM115.269 197.43C110.441 199.968 104.188 201.3 96.4 201.3V205.3C104.613 205.3 111.559 203.899 117.131 200.97L115.269 197.43ZM96.4 201.3C86.5798 201.3 79.3747 198.551 74.4559 193.329L71.5441 196.071C77.4253 202.316 85.8202 205.3 96.4 205.3V201.3ZM74.4644 193.338C69.6024 188.111 67 180.152 67 169.1H63C63 180.715 65.7309 189.822 71.5356 196.062L74.4644 193.338ZM67 169.1C67 163.02 67.8738 157.807 69.566 153.42L65.834 151.98C63.9262 156.926 63 162.647 63 169.1H67ZM69.566 153.42C71.2745 148.99 73.537 145.662 76.2934 143.326L73.7066 140.274C70.3296 143.138 67.7255 147.076 65.834 151.98L69.566 153.42ZM76.2804 143.336C81.8989 138.654 88.5716 136.3 96.4 136.3V132.3C87.695 132.3 80.1011 134.946 73.7196 140.264L76.2804 143.336ZM96.4 136.3C102.784 136.3 108.761 137.607 114.355 140.213L116.045 136.587C109.905 133.727 103.349 132.3 96.4 132.3V136.3ZM113.2 138.4V155.4H117.2V138.4H113.2ZM115.063 153.405L104.863 154.105L105.137 158.095L115.337 157.395L115.063 153.405ZM107 156.1V148.3H103V156.1H107ZM107 148.3C107 147.205 106.868 146.039 106.336 145.108L102.864 147.092C102.85 147.069 102.892 147.134 102.932 147.358C102.972 147.574 103 147.882 103 148.3H107ZM134.556 202H132.556V204H134.556V202ZM134.556 193.9L134.375 191.908L132.556 192.074V193.9H134.556ZM137.856 193.6L138.037 195.592L138.05 195.591L138.062 195.589L137.856 193.6ZM140.756 144.3H142.756V142.402L140.861 142.303L140.756 144.3ZM135.056 144H133.056V145.898L134.951 145.997L135.056 144ZM135.056 135.5V133.5H133.056V135.5H135.056ZM183.356 135.5H185.356V133.5H183.356V135.5ZM183.356 152.1L183.493 154.095L185.356 153.967V152.1H183.356ZM173.156 152.8H171.156V154.942L173.293 154.795L173.156 152.8ZM172.656 146.4L174.284 145.238L174.284 145.238L172.656 146.4ZM152.956 145.7V143.7H150.956V145.7H152.956ZM152.956 163.4H150.956V165.4H152.956V163.4ZM177.556 163.4H179.556V161.4H177.556V163.4ZM177.556 173.6V175.6H179.556V173.6H177.556ZM152.956 173.6V171.6H150.956V173.6H152.956ZM152.956 193.2H150.956V195.134L152.889 195.199L152.956 193.2ZM161.856 193.5H163.856V191.566L161.924 191.501L161.856 193.5ZM161.856 202V204H163.856V202H161.856ZM136.556 202V193.9H132.556V202H136.556ZM134.737 195.892L138.037 195.592L137.675 191.608L134.375 191.908L134.737 195.892ZM138.062 195.589C139.281 195.463 140.499 195.078 141.42 194.189C142.384 193.259 142.756 192.037 142.756 190.8H138.756C138.756 191.23 138.645 191.308 138.642 191.311C138.596 191.355 138.365 191.537 137.65 191.611L138.062 195.589ZM142.756 190.8V144.3H138.756V190.8H142.756ZM140.861 142.303L135.161 142.003L134.951 145.997L140.651 146.297L140.861 142.303ZM137.056 144V135.5H133.056V144H137.056ZM135.056 137.5H183.356V133.5H135.056V137.5ZM181.356 135.5V152.1H185.356V135.5H181.356ZM183.219 150.105L173.019 150.805L173.293 154.795L183.493 154.095L183.219 150.105ZM175.156 152.8V148.8H171.156V152.8H175.156ZM175.156 148.8C175.156 147.59 175.002 146.243 174.284 145.238L171.029 147.562C170.981 147.495 171.024 147.523 171.073 147.758C171.12 147.983 171.156 148.322 171.156 148.8H175.156ZM174.284 145.238C173.761 144.506 173.008 144.142 172.366 143.955C171.716 143.765 170.992 143.7 170.256 143.7V147.7C170.788 147.7 171.097 147.751 171.246 147.795C171.404 147.841 171.218 147.827 171.029 147.562L174.284 145.238ZM170.256 143.7H152.956V147.7H170.256V143.7ZM150.956 145.7V163.4H154.956V145.7H150.956ZM152.956 165.4H177.556V161.4H152.956V165.4ZM175.556 163.4V173.6H179.556V163.4H175.556ZM177.556 171.6H152.956V175.6H177.556V171.6ZM150.956 173.6V193.2H154.956V173.6H150.956ZM152.889 195.199L161.789 195.499L161.924 191.501L153.024 191.201L152.889 195.199ZM159.856 193.5V202H163.856V193.5H159.856ZM161.856 200H134.556V204H161.856V200Z" fill="url(#paint6_linear)"/>
<defs>
<linearGradient id="paint0_linear" x1="88.5" y1="63" x2="88.5" y2="118" gradientUnits="userSpaceOnUse">
<stop stop-color="#5CB5F5"/>
<stop offset="1" stop-color="#1EE232" stop-opacity="0.87"/>
</linearGradient>
<linearGradient id="paint1_linear" x1="153.5" y1="63" x2="153.5" y2="118" gradientUnits="userSpaceOnUse">
<stop stop-color="#5CB5F5"/>
<stop offset="1" stop-color="#1EE232" stop-opacity="0.87"/>
</linearGradient>
<linearGradient id="paint2_linear" x1="218.5" y1="63" x2="218.5" y2="118" gradientUnits="userSpaceOnUse">
<stop stop-color="#5CB5F5"/>
<stop offset="1" stop-color="#1EE232" stop-opacity="0.87"/>
</linearGradient>
<linearGradient id="paint3_linear" x1="33" y1="63" x2="33" y2="118" gradientUnits="userSpaceOnUse">
<stop offset="0.0625" stop-color="#5CB5F5"/>
<stop offset="1" stop-color="#1EE232" stop-opacity="0.87"/>
</linearGradient>
<linearGradient id="paint4_linear" x1="120.5" y1="0" x2="120.5" y2="74" gradientUnits="userSpaceOnUse">
<stop offset="0.463542" stop-color="#5CB5F5"/>
<stop offset="1" stop-color="#1EE232" stop-opacity="0.87"/>
</linearGradient>
<linearGradient id="paint5_linear" x1="140.5" y1="112" x2="140.5" y2="213" gradientUnits="userSpaceOnUse">
<stop stop-color="#1DF233"/>
<stop offset="1" stop-color="#0164FA"/>
</linearGradient>
<linearGradient id="paint6_linear" x1="140.5" y1="112" x2="140.5" y2="213" gradientUnits="userSpaceOnUse">
<stop offset="0.114583" stop-color="#5681F0"/>
<stop offset="1" stop-color="#85DA30" stop-opacity="0"/>
</linearGradient>
</defs>
</svg>
