<svg width="148" height="120" viewBox="0 0 148 120" fill="none" xmlns="http://www.w3.org/2000/svg">
<rect width="148" height="120" fill="white"/>
<path d="M73.3327 0.5978C73.7125 0.257553 74.2875 0.257554 74.6673 0.5978L147.397 65.7552C148.08 66.3675 147.647 67.5 146.729 67.5H1.27064C0.353041 67.5 -0.0800707 66.3675 0.603373 65.7552L73.3327 0.5978Z" fill="url(#paint0_linear)"/>
<rect x="74" y="31" width="2" height="37" fill="white"/>
<rect x="41" y="50" width="2" height="18" fill="white"/>
<rect x="16" y="51" width="2" height="115" transform="rotate(-90 16 51)" fill="white"/>
<rect x="16" y="31" width="2" height="115" transform="rotate(-90 16 31)" fill="white"/>
<rect x="107" y="50" width="2" height="18" fill="white"/>
<path d="M63.88 120H49.24C44.24 120 40.52 119 38.08 117C35.68 115 34.48 111.92 34.48 107.76V89.1C34.48 84.94 35.68 81.86 38.08 79.86C40.52 77.82 44.24 76.8 49.24 76.8H63.88C64.64 76.8 65.18 76.98 65.5 77.34C65.86 77.66 66.04 78.2 66.04 78.96V86.22C66.04 86.98 65.86 87.54 65.5 87.9C65.18 88.22 64.64 88.38 63.88 88.38H51.82C50.58 88.38 49.66 88.64 49.06 89.16C48.46 89.64 48.16 90.38 48.16 91.38V105.66C48.16 106.66 48.46 107.4 49.06 107.88C49.66 108.32 50.58 108.54 51.82 108.54H63.88C64.64 108.54 65.18 108.72 65.5 109.08C65.86 109.4 66.04 109.94 66.04 110.7V117.84C66.04 118.6 65.86 119.16 65.5 119.52C65.18 119.84 64.64 120 63.88 120ZM84.2758 120H74.9758C74.2158 120 73.6558 119.84 73.2958 119.52C72.9758 119.16 72.8158 118.6 72.8158 117.84V78.96C72.8158 78.2 72.9758 77.66 73.2958 77.34C73.6558 76.98 74.2158 76.8 74.9758 76.8H101.736C102.496 76.8 103.036 76.98 103.356 77.34C103.716 77.66 103.896 78.2 103.896 78.96V86.1C103.896 86.86 103.716 87.42 103.356 87.78C103.036 88.1 102.496 88.26 101.736 88.26H86.4358V94.5H96.8758C97.6358 94.5 98.1758 94.68 98.4958 95.04C98.8558 95.36 99.0358 95.9 99.0358 96.66V103.86C99.0358 104.62 98.8558 105.18 98.4958 105.54C98.1758 105.86 97.6358 106.02 96.8758 106.02H86.4358V117.84C86.4358 118.6 86.2558 119.16 85.8958 119.52C85.5758 119.84 85.0358 120 84.2758 120Z" fill="url(#paint1_linear)"/>
<defs>
<linearGradient id="paint0_linear" x1="2.5" y1="60.5" x2="109" y2="-38.5" gradientUnits="userSpaceOnUse">
<stop stop-color="#3AA1F2"/>
<stop offset="1" stop-color="#17EE60"/>
</linearGradient>
<linearGradient id="paint1_linear" x1="54" y1="119.5" x2="110" y2="73.5" gradientUnits="userSpaceOnUse">
<stop stop-color="#3AA1F2"/>
<stop offset="0.750571" stop-color="#32BEB8" stop-opacity="0.945248"/>
<stop offset="1" stop-color="#17EE60" stop-opacity="0.87"/>
</linearGradient>
</defs>
</svg>
