<svg xmlns="http://www.w3.org/2000/svg" enable-background="new 0 0 90 90" viewBox="0 0 90 90"><path fill="#2a414e" d="M66.6224518,9.0434666v71.9130707C66.6224518,83.1804504,64.8129578,85,62.5789871,85H27.4210148
		c-2.2340374,0-4.0434666-1.8195496-4.0434666-4.0434647V9.0434666C23.3775482,6.8094907,25.1869774,5,27.4210148,5h35.1579742
		C64.8129578,5,66.6224518,6.8094907,66.6224518,9.0434666z"/><path fill="#f3f3f3" d="M63.5,10.5626802v68.8746338c0,1.0494919-0.8587112,1.9082031-1.9081993,1.9082031H28.4081993
		C27.3587132,81.34552,26.5,80.4868088,26.5,79.4373169V10.5626802c0-1.0494862,0.8587132-1.9081993,1.9081993-1.9081993h6.7454872
		c0.5247459,0,0.9541016,0.4293566,0.9541016,0.9540997v1.6411619c0,0.5247431,0.4293556,0.9540997,0.9540977,0.9540997h15.8762283
		c0.5247421,0,0.9540977-0.4293566,0.9540977-0.9540997V9.6085806c0-0.5247431,0.4292984-0.9540997,0.9541016-0.9540997h6.7454872
		C62.6412888,8.6544809,63.5,9.5131941,63.5,10.5626802z"/><path fill="#e45647" d="M36.8477669,27.884903h-5.1185417C30.7781715,27.884903,30,28.663023,30,29.6141281v5.1098366
				c0,0.9597054,0.7781715,1.7292213,1.7292252,1.7292213h5.1185417c0.9510536,0,1.7292252-0.769516,1.7292252-1.7292213v-5.1098366
				C38.576992,28.663023,37.7988205,27.884903,36.8477669,27.884903z"/><path fill="#fcaf55" d="M47.5592728,27.884903h-5.1185455c-0.9510498,0-1.7292252,0.77812-1.7292252,1.7292252v5.1098366
				c0,0.9597054,0.7781754,1.7292213,1.7292252,1.7292213h5.1185455c0.9510498,0,1.7292252-0.769516,1.7292252-1.7292213v-5.1098366
				C49.2884979,28.663023,48.5103226,27.884903,47.5592728,27.884903z"/><path fill="#48b3d7" d="M58.2707748,27.884903h-5.1185417c-0.9510536,0-1.7292252,0.77812-1.7292252,1.7292252v5.1098366
				c0,0.9597054,0.7781715,1.7292213,1.7292252,1.7292213h5.1185417C59.2218285,36.453186,60,35.68367,60,34.7239647v-5.1098366
				C60,28.663023,59.2218285,27.884903,58.2707748,27.884903z"/><path fill="#e45647" d="M36.8477669,42.5583076h-5.1185417C30.7781715,42.5583076,30,43.3364296,30,44.2875328v5.1098366
				c0,0.9597054,0.7781715,1.7292252,1.7292252,1.7292252h5.1185417c0.9510536,0,1.7292252-0.7695198,1.7292252-1.7292252
				v-5.1098366C38.576992,43.3364296,37.7988205,42.5583076,36.8477669,42.5583076z"/><path fill="#48b3d7" d="M47.5592728,42.5583076h-5.1185455c-0.9510498,0-1.7292252,0.7781219-1.7292252,1.7292252v5.1098366
				c0,0.9597054,0.7781754,1.7292252,1.7292252,1.7292252h5.1185455c0.9510498,0,1.7292252-0.7695198,1.7292252-1.7292252
				v-5.1098366C49.2884979,43.3364296,48.5103226,42.5583076,47.5592728,42.5583076z"/><path fill="#fcaf55" d="M58.2707748,42.5583076h-5.1185417c-0.9510536,0-1.7292252,0.7781219-1.7292252,1.7292252v5.1098366
				c0,0.9597054,0.7781715,1.7292252,1.7292252,1.7292252h5.1185417C59.2218285,51.1265945,60,50.3570747,60,49.3973694v-5.1098366
				C60,43.3364296,59.2218285,42.5583076,58.2707748,42.5583076z"/><path fill="#e45647" d="M36.8477669,57.2317123h-5.1185417C30.7781715,57.2317123,30,58.0098343,30,58.9609375v5.1098328
				c0,0.9597092,0.7781715,1.7292252,1.7292252,1.7292252h5.1185417c0.9510536,0,1.7292252-0.769516,1.7292252-1.7292252v-5.1098328
				C38.576992,58.0098343,37.7988205,57.2317123,36.8477669,57.2317123z"/><path fill="#fcaf55" d="M47.5592728,57.2317123h-5.1185455c-0.9510498,0-1.7292252,0.7781219-1.7292252,1.7292252v5.1098328
				c0,0.9597092,0.7781754,1.7292252,1.7292252,1.7292252h5.1185455c0.9510498,0,1.7292252-0.769516,1.7292252-1.7292252v-5.1098328
				C49.2884979,58.0098343,48.5103226,57.2317123,47.5592728,57.2317123z"/><path fill="#48b3d7" d="M58.2707748,57.2317123h-5.1185417c-0.9510536,0-1.7292252,0.7781219-1.7292252,1.7292252v5.1098328
				c0,0.9597092,0.7781715,1.7292252,1.7292252,1.7292252h5.1185417C59.2218285,65.7999954,60,65.0304794,60,64.0707703v-5.1098328
				C60,58.0098343,59.2218285,57.2317123,58.2707748,57.2317123z"/><path fill="#939393" d="M45,72.7225037c-1.104557,0-1.9999733,0.8954163-1.9999733,1.9999695
		c0,1.1046143,0.8954163,2.0000305,1.9999733,2.0000305s1.9999733-0.8954163,1.9999733-2.0000305
		C46.9999733,73.6179199,46.104557,72.7225037,45,72.7225037z"/><g><path fill="#dfe1e2" d="M50.9430237 73.2224731c-.8284302 0-1.5.6715698-1.5 1.5s.6715698 1.5 1.5 1.5 1.499939-.6715698 1.499939-1.5S51.7714539 73.2224731 50.9430237 73.2224731zM39.0569763 73.2224731c-.8283691 0-1.499939.6715698-1.499939 1.5s.6715698 1.5 1.499939 1.5c.8284302 0 1.5-.6715698 1.5-1.5S39.8854065 73.2224731 39.0569763 73.2224731z"/></g></svg>