<svg width="1025" height="930" viewBox="0 0 1025 930" fill="none" xmlns="http://www.w3.org/2000/svg">
<path d="M435.533 750.574C347.67 750.575 262.525 722.288 194.608 670.534C126.689 618.782 80.198 546.763 63.057 466.751C45.916 386.739 59.184 303.684 100.602 231.738C142.021 159.79 209.025 103.404 290.199 72.1847C371.373 40.9655 461.695 36.8456 545.773 60.5267C629.852 84.208 702.486 134.225 751.3 202.056C800.114 269.887 822.087 351.335 813.474 432.521C804.863 513.708 766.199 589.61 704.071 647.295C668.888 680.141 627.038 706.181 580.943 723.91C534.848 741.638 485.425 750.7 435.533 750.574ZM435.533 48.1574C227.797 48.1574 58.791 205.077 58.791 397.959C58.791 590.84 227.797 747.76 435.533 747.76C643.268 747.76 812.273 590.84 812.273 397.959C812.273 205.077 643.268 48.1574 435.533 48.1574Z" fill="#E6E6E6"/>
<path d="M186.484 667.229V651.499C186.484 649.575 185.735 647.701 184.35 646.157C182.964 644.614 181.015 643.483 178.794 642.933L174.913 641.964C173.064 641.5 171.444 640.555 170.292 639.267C169.14 637.98 168.517 636.419 168.516 634.815V626.935H146.955V634.815C146.953 636.419 146.331 637.98 145.179 639.267C144.026 640.555 142.407 641.5 140.558 641.964L136.677 642.933C134.455 643.483 132.507 644.614 131.122 646.157C129.736 647.701 128.987 649.575 128.986 651.499V667.229H186.484Z" fill="#365E7D"/>
<path d="M173.386 641.441C169.058 644.597 163.495 646.338 157.736 646.338C151.976 646.338 146.414 644.597 142.085 641.441C143.553 640.815 144.784 639.866 145.643 638.698C146.502 637.528 146.956 636.185 146.955 634.815V626.935H168.516V634.815C168.515 636.185 168.969 637.528 169.828 638.698C170.687 639.866 171.919 640.815 173.386 641.441Z" fill="#FFCBBE"/>
<path d="M157.736 634.397C152.97 634.397 148.399 632.825 145.03 630.026C141.66 627.227 139.768 623.432 139.768 619.474V600.073H175.703V619.474C175.703 623.432 173.81 627.227 170.44 630.026C167.071 632.825 162.501 634.397 157.736 634.397Z" fill="#FFDDCE"/>
<path d="M136.174 604.551H139.768V612.012H136.174C135.221 612.012 134.307 611.697 133.633 611.137C132.959 610.578 132.58 609.819 132.58 609.028V607.535C132.58 606.743 132.959 605.984 133.633 605.425C134.307 604.865 135.221 604.551 136.174 604.551Z" fill="#FFCBBE"/>
<path d="M179.297 612.012H175.703V604.551H179.297C180.25 604.551 181.164 604.865 181.838 605.425C182.512 605.984 182.89 606.743 182.89 607.535V609.028C182.89 609.819 182.512 610.578 181.838 611.137C181.164 611.697 180.25 612.012 179.297 612.012Z" fill="#FFCBBE"/>
<path d="M177.5 604.551H137.971V597.088C137.971 592.735 140.053 588.56 143.76 585.48C147.467 582.402 152.494 580.673 157.736 580.673C162.978 580.673 168.005 582.402 171.712 585.48C175.418 588.56 177.5 592.735 177.5 597.088V604.551Z" fill="#365E7D"/>
<path d="M175.703 604.551H139.768L145.158 595.596H168.516L175.703 604.551Z" fill="#A7DAF7"/>
<path d="M120.003 616.996V625.443L123.596 626.935L127.19 625.443V617.012C128.918 617.517 130.462 618.38 131.675 619.519C132.889 620.66 133.733 622.038 134.126 623.523C134.519 625.009 134.449 626.554 133.923 628.012C133.397 629.468 132.432 630.791 131.118 631.851C130.441 632.4 129.904 633.056 129.538 633.781C129.172 634.505 128.984 635.283 128.986 636.068V661.259H118.206V636.084C118.199 635.282 118 634.49 117.621 633.754C117.243 633.017 116.693 632.349 116.002 631.79C114.703 630.724 113.753 629.402 113.24 627.946C112.726 626.491 112.666 624.952 113.066 623.472C113.467 621.993 114.314 620.622 115.527 619.489C116.741 618.357 118.28 617.499 120.003 616.996Z" fill="#D8D7DA"/>
<path d="M181.094 641.859V667.229H134.378V643.352L143.362 640.367L145.158 653.798H170.313L172.11 640.367L181.094 641.859Z" fill="#40BAFF"/>
<path d="M114.612 649.321H120.003V656.782H111.019V652.305C111.019 651.514 111.398 650.754 112.072 650.195C112.746 649.635 113.66 649.321 114.612 649.321Z" fill="#FFDDCE"/>
<path d="M121.799 667.229H111.019V655.29H121.799C123.706 655.29 125.534 655.919 126.882 657.039C128.23 658.158 128.986 659.676 128.986 661.259C128.986 662.842 128.23 664.361 126.882 665.481C125.534 666.6 123.706 667.229 121.799 667.229Z" fill="#FFDDCE"/>
<path d="M186.484 641.859H197.264V658.275C197.264 659.462 196.697 660.601 195.686 661.44C194.675 662.28 193.305 662.751 191.874 662.751C190.445 662.751 189.074 662.28 188.063 661.44C187.052 660.601 186.484 659.462 186.484 658.275V641.859Z" fill="#8CC63E"/>
<path d="M195.468 628.428V641.859H188.281V628.428L186.484 626.935L188.281 617.981H195.468L197.264 626.935L195.468 628.428Z" fill="#E9E9EA"/>
<path d="M204.453 656.782H195.468V649.321H200.859C201.812 649.321 202.725 649.635 203.399 650.195C204.073 650.754 204.453 651.514 204.453 652.305V656.782Z" fill="#FFDDCE"/>
<path d="M193.671 667.229H204.453V655.29H193.671C191.766 655.29 189.937 655.919 188.589 657.039C187.241 658.158 186.484 659.676 186.484 661.259C186.484 662.842 187.241 664.361 188.589 665.481C189.937 666.6 191.766 667.229 193.671 667.229Z" fill="#FFDDCE"/>
<path d="M141.565 661.259H175.703V667.229H141.565V661.259Z" fill="#2E73F8"/>
<path d="M150.549 614.997C151.024 614.997 151.482 614.839 151.819 614.559C152.156 614.28 152.345 613.9 152.345 613.505V612.012C152.345 611.617 152.156 611.236 151.819 610.956C151.482 610.676 151.024 610.52 150.549 610.52C150.072 610.52 149.615 610.676 149.277 610.956C148.941 611.236 148.752 611.617 148.752 612.012V613.505C148.752 613.9 148.941 614.28 149.277 614.559C149.615 614.839 150.072 614.997 150.549 614.997Z" fill="black"/>
<path d="M164.923 614.997C165.4 614.997 165.856 614.839 166.193 614.559C166.53 614.28 166.719 613.9 166.719 613.505V612.012C166.719 611.617 166.53 611.236 166.193 610.956C165.856 610.676 165.4 610.52 164.923 610.52C164.446 610.52 163.989 610.676 163.653 610.956C163.315 611.236 163.126 611.617 163.126 612.012V613.505C163.126 613.9 163.315 614.28 163.653 614.559C163.989 614.839 164.446 614.997 164.923 614.997Z" fill="black"/>
<path d="M157.736 626.935C161.766 626.935 164.923 624.968 164.923 622.458H161.329C161.329 623.068 159.93 623.951 157.736 623.951C155.542 623.951 154.142 623.068 154.142 622.458H150.549C150.549 624.968 153.705 626.935 157.736 626.935Z" fill="black"/>
<path d="M200.859 647.828H199.062V641.859C199.062 641.463 198.872 641.083 198.536 640.803C198.198 640.523 197.741 640.367 197.264 640.367V629.04L198.541 627.995C198.742 627.827 198.892 627.622 198.979 627.396C199.066 627.17 199.088 626.931 199.043 626.697L197.247 617.742C197.179 617.392 196.962 617.073 196.635 616.844C196.31 616.613 195.896 616.488 195.468 616.489H188.281C187.854 616.488 187.439 616.613 187.113 616.844C186.787 617.073 186.57 617.392 186.502 617.742L184.705 626.697C184.66 626.931 184.683 627.17 184.77 627.396C184.857 627.622 185.008 627.827 185.209 627.995L186.484 629.04V640.367C186.008 640.367 185.55 640.523 185.214 640.803C184.876 641.083 184.687 641.463 184.687 641.859V644.202C183.199 642.94 181.351 642.011 179.315 641.501L175.434 640.53C173.95 640.167 172.649 639.412 171.727 638.382C170.803 637.351 170.307 636.1 170.313 634.815V632.129C172.561 630.591 174.37 628.658 175.614 626.47C176.856 624.282 177.5 621.893 177.5 619.474V613.505H179.297C180.725 613.501 182.094 613.028 183.104 612.189C184.114 611.351 184.683 610.213 184.687 609.028V607.535C184.683 606.349 184.114 605.212 183.104 604.373C182.094 603.535 180.725 603.062 179.297 603.058V597.088C179.297 592.339 177.025 587.784 172.982 584.425C168.938 581.067 163.454 579.181 157.736 579.181C152.017 579.181 146.533 581.067 142.49 584.425C138.446 587.784 136.174 592.339 136.174 597.088V603.058C134.746 603.062 133.377 603.535 132.367 604.373C131.358 605.212 130.788 606.349 130.783 607.535V609.028C130.788 610.213 131.358 611.351 132.367 612.189C133.377 613.028 134.746 613.501 136.174 613.505H137.971V619.474C137.97 621.893 138.615 624.282 139.858 626.47C141.1 628.658 142.911 630.591 145.158 632.129V634.815C145.164 636.1 144.668 637.351 143.745 638.382C142.821 639.412 141.52 640.167 140.037 640.53L136.157 641.501C134.12 642.011 132.272 642.94 130.783 644.202V636.068C130.78 635.481 130.92 634.899 131.194 634.358C131.469 633.817 131.873 633.328 132.383 632.92C133.913 631.68 135.037 630.138 135.649 628.437C136.261 626.737 136.34 624.935 135.88 623.202C135.419 621.468 134.433 619.861 133.017 618.533C131.6 617.205 129.799 616.198 127.783 615.608C127.513 615.527 127.222 615.5 126.938 615.532C126.652 615.563 126.38 615.652 126.145 615.789C125.91 615.928 125.719 616.111 125.588 616.323C125.458 616.536 125.39 616.772 125.393 617.012V624.518L123.596 625.264L121.799 624.518V616.996C121.802 616.758 121.736 616.521 121.605 616.309C121.474 616.096 121.283 615.913 121.048 615.774C120.813 615.637 120.541 615.548 120.255 615.516C119.971 615.485 119.68 615.511 119.41 615.593C117.4 616.179 115.604 617.178 114.187 618.499C112.771 619.819 111.781 621.416 111.312 623.14C110.844 624.866 110.91 626.661 111.506 628.359C112.103 630.056 113.209 631.6 114.721 632.845C115.248 633.263 115.67 633.766 115.96 634.322C116.251 634.879 116.403 635.477 116.409 636.084V647.828H114.612C113.184 647.832 111.816 648.305 110.806 649.143C109.795 649.982 109.226 651.119 109.222 652.305V667.229C109.222 667.625 109.411 668.004 109.749 668.284C110.085 668.564 110.542 668.722 111.019 668.722H121.799C123.751 668.717 125.647 668.177 127.19 667.184V667.229C127.19 667.625 127.38 668.004 127.716 668.284C128.054 668.564 128.511 668.722 128.986 668.722H186.484C186.961 668.722 187.418 668.564 187.755 668.284C188.092 668.004 188.281 667.625 188.281 667.229V667.184C189.825 668.177 191.72 668.717 193.671 668.722H204.453C204.928 668.722 205.385 668.564 205.723 668.284C206.059 668.004 206.249 667.625 206.249 667.229V652.305C206.244 651.119 205.675 649.982 204.666 649.143C203.655 648.305 202.286 647.832 200.859 647.828ZM177.5 606.043H179.297C179.774 606.043 180.231 606.2 180.568 606.479C180.904 606.759 181.094 607.139 181.094 607.535V609.028C181.094 609.423 180.904 609.803 180.568 610.083C180.231 610.362 179.774 610.52 179.297 610.52H177.5V606.043ZM112.815 652.305C112.815 651.91 113.005 651.53 113.342 651.25C113.679 650.971 114.136 650.813 114.612 650.813H118.206V653.798H112.815V652.305ZM121.799 665.736H112.815V656.782H121.799C123.23 656.782 124.6 657.254 125.611 658.093C126.622 658.933 127.19 660.073 127.19 661.259C127.19 662.447 126.622 663.585 125.611 664.425C124.6 665.264 123.23 665.736 121.799 665.736ZM127.19 636.068V655.335C125.647 654.343 123.751 653.802 121.799 653.798V649.321C121.799 648.925 121.61 648.546 121.274 648.266C120.936 647.986 120.479 647.828 120.003 647.828V636.084C119.997 635.084 119.75 634.095 119.278 633.175C118.806 632.254 118.118 631.422 117.254 630.726C116.338 629.972 115.63 629.063 115.176 628.06C114.722 627.059 114.534 625.987 114.624 624.919C114.715 623.85 115.081 622.811 115.699 621.872C116.317 620.932 117.173 620.114 118.206 619.474V625.443C118.202 625.719 118.293 625.991 118.469 626.227C118.643 626.461 118.895 626.65 119.194 626.771L122.788 628.264C123.037 628.374 123.314 628.431 123.596 628.431C123.879 628.431 124.157 628.374 124.405 628.264L127.999 626.771C128.298 626.65 128.549 626.461 128.725 626.227C128.9 625.991 128.99 625.719 128.986 625.443V619.474C130.1 620.171 131.004 621.072 131.627 622.108C132.25 623.143 132.577 624.285 132.58 625.443C132.585 626.437 132.346 627.421 131.88 628.337C131.413 629.253 130.729 630.081 129.867 630.77C129.016 631.46 128.34 632.284 127.88 633.194C127.421 634.103 127.186 635.082 127.19 636.068ZM132.58 665.736H130.783V651.499C130.782 649.885 131.412 648.313 132.58 647.022V665.736ZM137.971 610.52H136.174C135.698 610.52 135.241 610.362 134.903 610.083C134.567 609.803 134.378 609.423 134.378 609.028V607.535C134.378 607.139 134.567 606.759 134.903 606.479C135.241 606.2 135.698 606.043 136.174 606.043H137.971V610.52ZM139.768 597.088C139.768 593.131 141.66 589.335 145.03 586.536C148.399 583.738 152.97 582.165 157.736 582.165C162.501 582.165 167.071 583.738 170.44 586.536C173.81 589.335 175.703 593.131 175.703 597.088V601.864L170.007 594.775C169.845 594.57 169.623 594.401 169.363 594.284C169.104 594.167 168.812 594.105 168.516 594.104H145.158C144.826 594.102 144.499 594.179 144.217 594.324C143.934 594.469 143.706 594.677 143.559 594.925L139.768 601.208V597.088ZM172.344 603.058H142.679L146.272 597.088H167.546L172.344 603.058ZM141.565 619.474V606.043H173.907V619.474C173.907 623.036 172.203 626.452 169.17 628.971C166.137 631.49 162.024 632.904 157.736 632.904C153.446 632.904 149.333 631.49 146.301 628.971C143.268 626.452 141.565 623.036 141.565 619.474ZM157.736 644.844C153.312 644.872 148.985 643.773 145.337 641.695L145.302 641.366C146.394 640.533 147.265 639.522 147.859 638.393C148.453 637.265 148.757 636.046 148.752 634.815V634.084C151.531 635.271 154.611 635.89 157.736 635.89C160.86 635.89 163.94 635.271 166.719 634.084V634.815C166.714 636.046 167.018 637.265 167.612 638.393C168.206 639.522 169.077 640.533 170.17 641.366L170.134 641.695C166.486 643.773 162.158 644.872 157.736 644.844ZM169.63 645.426L168.696 652.305H146.775L145.841 645.426C149.517 647.004 153.597 647.828 157.736 647.828C161.875 647.828 165.953 647.004 169.63 645.426ZM172.11 665.736H143.362V662.751H172.11V665.736ZM179.297 665.736H175.703V661.259C175.703 660.864 175.514 660.484 175.177 660.204C174.84 659.924 174.383 659.767 173.907 659.767H141.565C141.088 659.767 140.631 659.924 140.294 660.204C139.957 660.484 139.768 660.864 139.768 661.259V665.736H136.174V644.694C136.508 644.57 136.849 644.46 137.198 644.366L141.079 643.396C141.313 643.337 141.547 643.231 141.78 643.172C141.838 643.208 141.892 643.248 141.942 643.291L143.379 653.962C143.423 654.328 143.63 654.666 143.959 654.912C144.288 655.158 144.715 655.292 145.158 655.29H170.313C170.755 655.292 171.183 655.158 171.511 654.912C171.841 654.666 172.048 654.328 172.092 653.962L173.529 643.291C173.579 643.248 173.633 643.208 173.691 643.172C173.924 643.231 174.158 643.337 174.391 643.396L178.273 644.366C178.622 644.458 178.964 644.567 179.297 644.694V665.736ZM184.687 665.736H182.89V647.022C184.059 648.313 184.689 649.885 184.687 651.499V665.736ZM189.809 619.474H193.941L195.342 626.428L194.193 627.368C193.861 627.653 193.675 628.032 193.671 628.428V640.367H190.077V628.428C190.074 628.032 189.887 627.653 189.557 627.368L188.407 626.428L189.809 619.474ZM188.281 643.352H195.468V647.828C194.992 647.828 194.535 647.986 194.198 648.266C193.861 648.546 193.671 648.925 193.671 649.321V653.798C191.72 653.802 189.825 654.343 188.281 655.335V643.352ZM202.656 665.736H193.671C192.241 665.736 190.871 665.264 189.859 664.425C188.849 663.585 188.281 662.447 188.281 661.259C188.281 660.073 188.849 658.933 189.859 658.093C190.871 657.254 192.241 656.782 193.671 656.782H202.656V665.736ZM202.656 653.798H197.264V650.813H200.859C201.335 650.813 201.792 650.971 202.129 651.25C202.466 651.53 202.656 651.91 202.656 652.305V653.798Z" fill="black"/>
<path d="M714.921 615.872C716.47 615.872 717.871 616.474 718.878 617.429C719.886 618.384 720.52 619.712 720.52 621.179C720.52 624.116 718.019 626.486 714.921 626.486H703.722C702.174 626.486 700.773 625.885 699.766 624.93C698.757 623.974 698.123 622.647 698.123 621.179C698.123 619.746 698.72 618.455 699.672 617.518C700.698 616.509 702.136 615.872 703.722 615.872H714.921Z" fill="#FFEAA7"/>
<path d="M698.123 655.074C700.401 656.029 702.939 656.56 705.589 656.56H714.921H720.52V658.329C720.52 661.265 718.019 663.636 714.921 663.636H709.322H703.722C700.625 663.636 698.123 661.265 698.123 658.329V655.091V655.074Z" fill="#E6E9ED"/>
<path d="M703.722 626.486H714.921C718.019 626.486 720.52 624.116 720.52 621.179V642.408H720.203C719.213 642.408 718.262 642.78 717.553 643.452L714.921 645.946H707.455C704.133 645.946 700.923 645.114 698.123 643.575V637.26V621.179C698.123 622.647 698.757 623.974 699.766 624.93C700.773 625.885 702.174 626.486 703.722 626.486Z" fill="#E6E9ED"/>
<path d="M698.851 615.111L699.672 617.518C698.72 618.455 698.123 619.747 698.123 621.179V637.26L690.023 625.779L676.641 606.78C678.339 608.549 682.184 609.291 686.308 608.46C691.255 607.469 694.782 604.551 694.353 601.862L698.851 615.111Z" fill="#E6E9ED"/>
<path d="M694.352 601.862C694.782 604.551 691.255 607.469 686.308 608.46C682.184 609.292 678.339 608.549 676.641 606.78L676.024 605.913C675.931 605.735 675.875 605.541 675.819 605.346C675.128 602.605 678.712 599.545 683.808 598.519C688.473 597.581 692.803 598.66 694.036 600.942L694.055 600.995L694.352 601.862Z" fill="#F0D0B4"/>
<path d="M740.977 575.185H724.253V557.831V557.813C728.136 558.485 731.626 560.202 734.407 562.625C738.065 565.809 740.492 570.231 740.977 575.185Z" fill="#FF826E"/>
<path d="M716.788 557.831V575.185H700.064C700.904 566.446 707.829 559.37 716.788 557.813V557.831Z" fill="#FF826E"/>
<path d="M724.253 557.831V575.185H716.788V557.831V557.813C718.001 557.601 719.251 557.495 720.52 557.495C721.79 557.495 723.04 557.601 724.253 557.813V557.831Z" fill="#FC6E51"/>
<path d="M700.064 575.185H716.788H724.253H740.977H742.918C743.944 575.185 744.784 575.98 744.784 576.954V580.492C744.784 581.465 743.944 582.261 742.918 582.261H741.051H733.586H707.455H699.99H698.123C697.097 582.261 696.257 581.465 696.257 580.492V576.954C696.257 575.98 697.097 575.185 698.123 575.185H700.064Z" fill="#FC6E51"/>
<path d="M741.051 582.261V592.875C741.051 591.406 740.416 590.08 739.409 589.125C738.4 588.169 737.001 587.568 735.452 587.568H733.586V582.261H741.051Z" fill="#656D78"/>
<path d="M705.589 587.568C702.491 587.568 699.99 589.938 699.99 592.875V582.261H707.455V587.568H705.589Z" fill="#656D78"/>
<path d="M755.031 629.777L757.849 607.027H769.048V633.916C769.048 637.242 767.63 640.249 765.334 642.425C763.039 644.601 759.865 645.946 756.356 645.946C751.559 645.946 747.154 643.381 745.008 639.294L742.918 635.332V663.636H727.986V656.56C730.04 656.56 731.719 654.968 731.719 653.022V649.484C731.719 647.538 730.04 645.946 727.986 645.946V610.565L727.071 609.876L727.986 608.796C733.847 609.91 739.241 612.317 743.795 615.749C748.349 619.163 752.064 623.585 754.528 628.751L755.031 629.777Z" fill="#FCD770"/>
<path d="M718.878 617.429C717.871 616.474 716.47 615.872 714.921 615.872H703.722C702.136 615.872 700.699 616.509 699.672 617.518L698.851 615.111C702.715 612.122 707.344 609.964 712.476 608.92L713.055 608.796L720.52 617.641V621.179C720.52 619.711 719.886 618.384 718.878 617.429Z" fill="#FCD770"/>
<path d="M690.022 625.779L698.123 637.259V643.575C700.923 645.114 704.134 645.946 707.455 645.946H714.921V656.56H705.589C702.938 656.56 700.401 656.029 698.123 655.074C691.534 652.35 686.924 646.123 686.924 638.87C686.924 634.217 688.025 629.759 690.022 625.779Z" fill="#FCD770"/>
<path d="M727.986 656.56V663.636H714.921C718.019 663.636 720.52 661.265 720.52 658.329V656.56H727.986Z" fill="#75B1F2"/>
<path d="M727.986 610.565V645.946H726.12C726.12 644 724.44 642.408 722.387 642.408H720.52V621.179V617.641L727.071 609.876L727.986 610.565Z" fill="#75B1F2"/>
<path d="M731.719 649.484V653.022C731.719 654.968 730.039 656.56 727.986 656.56H720.52H714.921V645.946L717.553 643.452C718.262 642.78 719.213 642.408 720.203 642.408H720.52H722.387C724.439 642.408 726.12 644 726.12 645.946H727.986C730.039 645.946 731.719 647.538 731.719 649.484Z" fill="#F0D0B4"/>
<path d="M769.048 594.644V607.027H757.849L755.217 604.533C754.509 603.861 754.116 602.958 754.116 602.021V599.951C754.116 598.978 754.528 598.094 755.217 597.457C755.889 596.802 756.823 596.413 757.849 596.413V594.644C757.849 592.698 759.529 591.106 761.582 591.106H765.315C767.369 591.106 769.048 592.698 769.048 594.644Z" fill="#F0D0B4"/>
<path d="M739.409 589.125C740.416 590.08 741.051 591.407 741.051 592.875C741.051 595.812 738.551 598.182 735.452 598.182H733.343C733.511 597.616 733.586 597.033 733.586 596.413V587.568H735.452C737.001 587.568 738.401 588.169 739.409 589.125Z" fill="#F0D0B4"/>
<path d="M726.12 603.489L727.986 608.796L727.071 609.876L720.52 617.641L713.055 608.796L714.921 603.489H726.12Z" fill="#F0D0B4"/>
<path d="M707.698 598.182C707.53 597.616 707.455 597.033 707.455 596.413V587.568V582.261H733.586V587.568V596.413C733.586 597.033 733.511 597.616 733.343 598.182C732.521 601.243 729.591 603.489 726.12 603.489H714.921C711.449 603.489 708.519 601.243 707.698 598.182Z" fill="#F0D0B4"/>
<path d="M707.698 598.182H705.589C704.04 598.182 702.639 597.581 701.632 596.625C700.624 595.67 699.99 594.343 699.99 592.875C699.99 589.938 702.49 587.568 705.589 587.568H707.455V596.413C707.455 597.033 707.53 597.616 707.698 598.182Z" fill="#F0D0B4"/>
<path d="M765.315 589.337H761.582C758.495 589.337 755.983 591.718 755.983 594.644V594.946C753.811 595.677 752.25 597.644 752.25 599.951V602.022C752.25 603.44 752.834 604.774 753.891 605.777L755.889 607.671L753.878 623.88C748.421 615.531 739.611 609.495 729.42 607.279L728.586 604.904C731.309 604.192 733.543 602.367 734.661 599.951H735.452C739.569 599.951 742.918 596.778 742.918 592.875V584.03C744.976 584.03 746.651 582.443 746.651 580.492V576.954C746.651 575.003 744.976 573.416 742.918 573.416H742.593C740.809 563.226 731.613 555.726 720.52 555.726C709.428 555.726 700.232 563.226 698.448 573.416H698.123C696.065 573.416 694.39 575.003 694.39 576.954V580.492C694.39 582.443 696.065 584.03 698.123 584.03V592.875C698.123 596.778 701.472 599.951 705.589 599.951H706.38C707.5 602.367 709.734 604.193 712.455 604.904L711.619 607.28C707.4 608.197 703.377 609.891 699.821 612.216L696.145 601.395C696.133 601.336 696.135 601.277 696.122 601.22C695.186 597.492 689.621 595.543 683.424 596.788C679.578 597.561 676.364 599.399 674.826 601.701C673.947 603.017 673.659 604.418 673.996 605.756C674.188 606.523 674.585 607.211 675.136 607.815L687.925 625.97C686.049 630.057 685.058 634.381 685.058 638.87C685.058 646.413 689.62 652.953 696.257 656.181V658.329C696.257 662.231 699.605 665.405 703.722 665.405H709.322H714.921H744.784V642.243C747.502 645.656 751.723 647.715 756.358 647.715C764.383 647.715 770.915 641.525 770.915 633.92V594.644C770.915 591.718 768.402 589.337 765.315 589.337ZM755.983 599.951C755.983 598.977 756.819 598.182 757.849 598.182H759.716V594.644C759.716 593.67 760.552 592.875 761.582 592.875H765.315C766.345 592.875 767.182 593.67 767.182 594.644V605.258H758.622L756.529 603.275C756.177 602.941 755.983 602.494 755.983 602.022V599.951ZM726.12 658.329V661.867H721.35C721.992 660.822 722.387 659.624 722.387 658.329H726.12ZM727.986 654.791H716.788V646.679L718.88 644.695C719.229 644.366 719.708 644.177 720.2 644.177H722.387C723.417 644.177 724.253 644.971 724.253 645.946V647.715H727.986C729.017 647.715 729.853 648.509 729.853 649.484V653.022C729.853 653.996 729.017 654.791 727.986 654.791ZM724.774 605.258L725.894 608.442L720.52 614.809L715.145 608.44L716.265 605.256H724.774V605.258ZM715.164 614.127C715.081 614.125 715.004 614.103 714.921 614.103H703.722C703.704 614.103 703.687 614.108 703.669 614.108C706.359 612.591 709.286 611.457 712.342 610.783L715.164 614.127ZM703.722 617.641H708.458C707.82 618.684 707.455 619.892 707.455 621.179V622.948H711.188V621.179C711.188 619.228 712.863 617.641 714.921 617.641C716.98 617.641 718.654 619.228 718.654 621.179C718.654 623.13 716.98 624.717 714.921 624.717H703.722C701.664 624.717 699.99 623.13 699.99 621.179C699.99 619.228 701.664 617.641 703.722 617.641ZM699.99 627.272C701.093 627.88 702.357 628.255 703.722 628.255H714.921C716.288 628.255 717.551 627.88 718.654 627.272V640.869C717.754 641.115 716.92 641.548 716.241 642.193L714.149 644.177H707.455C704.842 644.177 702.287 643.585 699.99 642.505V627.272ZM726.12 642.009C725.127 641.164 723.824 640.639 722.387 640.639V621.179C722.387 620.344 722.206 619.554 721.924 618.809L726.12 613.839V642.009ZM735.452 596.413V589.337C737.511 589.337 739.185 590.924 739.185 592.875C739.185 594.826 737.511 596.413 735.452 596.413ZM739.185 586.783C738.082 586.174 736.819 585.799 735.452 585.799V584.03H739.185V586.783ZM738.805 573.416H726.12V560.073C732.531 561.956 737.449 566.998 738.805 573.416ZM722.387 559.352V573.416H718.654V559.352C719.268 559.295 719.889 559.264 720.52 559.264C721.152 559.264 721.773 559.295 722.387 559.352ZM714.921 560.073V573.416H702.237C703.592 566.998 708.51 561.956 714.921 560.073ZM698.121 576.954H742.918V580.492H698.123L698.121 576.954ZM705.589 584.03V585.799C704.223 585.799 702.959 586.174 701.856 586.783V584.03H705.589ZM701.856 592.875C701.856 590.924 703.53 589.337 705.589 589.337V596.413C703.53 596.413 701.856 594.826 701.856 592.875ZM709.322 596.413V584.03H731.719V596.413C731.719 599.34 729.207 601.72 726.12 601.72H714.921C711.834 601.72 709.322 599.34 709.322 596.413ZM677.978 603.595C678.96 602.127 681.402 600.814 684.201 600.25C685.267 600.036 686.263 599.942 687.171 599.942C689.812 599.942 691.694 600.735 692.306 601.64L692.488 602.178C692.533 602.541 692.434 602.941 692.138 603.385C691.156 604.853 688.714 606.166 685.915 606.73C682.063 607.503 679.153 606.698 678.072 605.617L677.706 605.097C677.684 605.044 677.639 604.994 677.624 604.942C677.527 604.546 677.646 604.094 677.978 603.595ZM683.014 610.563C684.19 610.563 685.427 610.443 686.692 610.188C689.691 609.586 692.294 608.331 694.03 606.718L697.582 617.171C696.749 618.312 696.257 619.69 696.257 621.179V631.429L681.504 610.487C681.995 610.533 682.498 610.563 683.014 610.563ZM688.791 638.87C688.791 635.652 689.341 632.52 690.426 629.526L696.257 637.803V640.087C695.443 639.396 694.682 638.647 694.017 637.808L691.031 639.931C694.887 644.804 701.028 647.715 707.455 647.715H713.055V654.791H705.589C696.325 654.791 688.791 647.648 688.791 638.87ZM709.322 661.867H703.722C701.664 661.867 699.99 660.28 699.99 658.329V657.576C701.772 658.055 703.646 658.329 705.589 658.329H718.654C718.654 660.28 716.98 661.867 714.921 661.867H709.322ZM756.358 644.177C752.233 644.177 748.525 642.004 746.679 638.507L744.784 634.914V628.255H741.051V661.867H729.853V658.003C732.02 657.271 733.586 655.326 733.586 653.022V649.484C733.586 647.18 732.02 645.234 729.853 644.502V611.032C739.974 613.615 748.461 620.387 752.828 629.492L753.11 630.077L752.265 636.895L755.972 637.308L759.509 608.796H767.182V633.92C767.182 639.575 762.325 644.177 756.358 644.177Z" fill="black"/>
<path d="M109.595 108.138H166.534V216.806H109.595V108.138Z" fill="#FDBD40"/>
<path d="M130.3 190.726H145.829V216.806H130.3V190.726Z" fill="#5A6470"/>
<path d="M63.009 155.952H109.595V212.46H63.009V155.952Z" fill="#A7C6D3"/>
<path d="M68.185 129.871H99.243V155.952H68.185V129.871Z" fill="#CFDFE8"/>
<path d="M73.361 114.658H94.066V129.871H73.361V114.658Z" fill="#A7C6D3"/>
<path d="M81.126 99.4443H86.302V114.658H81.126V99.4443Z" fill="#5A6470"/>
<path d="M166.534 155.952H213.121V212.46H166.534V155.952Z" fill="#E9686A"/>
<path d="M207.945 155.952H176.887V114.658L207.945 123.351V155.952Z" fill="#F98C96"/>
<path d="M184.651 127.698H189.828V155.952H184.651V127.698Z" fill="#5A6470"/>
<path d="M195.004 127.698H200.18V155.952H195.004V127.698Z" fill="#5A6470"/>
<path d="M70.773 162.472H101.831V166.819H70.773V162.472Z" fill="#5A6470"/>
<path d="M70.773 171.165H101.831V175.512H70.773V171.165Z" fill="#5A6470"/>
<path d="M70.773 179.859H101.831V184.206H70.773V179.859Z" fill="#5A6470"/>
<path d="M70.773 188.552H101.831V192.899H70.773V188.552Z" fill="#5A6470"/>
<path d="M122.536 121.178H132.889V129.871H122.536V121.178Z" fill="#5A6470"/>
<path d="M143.241 121.178H153.594V129.871H143.241V121.178Z" fill="#5A6470"/>
<path d="M122.536 138.565H132.889V147.258H122.536V138.565Z" fill="#5A6470"/>
<path d="M143.241 138.565H153.594V147.258H143.241V138.565Z" fill="#5A6470"/>
<path d="M122.536 155.952H132.889V164.645H122.536V155.952Z" fill="#5A6470"/>
<path d="M143.241 155.952H153.594V164.645H143.241V155.952Z" fill="#5A6470"/>
<path d="M122.536 173.339H132.889V182.032H122.536V173.339Z" fill="#5A6470"/>
<path d="M143.241 173.339H153.594V182.032H143.241V173.339Z" fill="#5A6470"/>
<path d="M182.063 199.419H197.592V212.46H182.063V199.419Z" fill="#5A6470"/>
<path d="M174.299 162.472H179.475V166.819H174.299V162.472Z" fill="#5A6470"/>
<path d="M184.651 162.472H195.004V166.819H184.651V162.472Z" fill="#5A6470"/>
<path d="M200.18 162.472H205.356V166.819H200.18V162.472Z" fill="#5A6470"/>
<path d="M174.299 171.165H179.475V175.512H174.299V171.165Z" fill="#5A6470"/>
<path d="M184.651 171.165H195.004V175.512H184.651V171.165Z" fill="#5A6470"/>
<path d="M200.18 171.165H205.356V175.512H200.18V171.165Z" fill="#5A6470"/>
<path d="M174.299 179.859H179.475V184.206H174.299V179.859Z" fill="#5A6470"/>
<path d="M184.651 179.859H195.004V184.206H184.651V179.859Z" fill="#5A6470"/>
<path d="M200.18 179.859H205.356V184.206H200.18V179.859Z" fill="#5A6470"/>
<path d="M174.299 188.552H179.475V192.899H174.299V188.552Z" fill="#5A6470"/>
<path d="M184.651 188.552H195.004V192.899H184.651V188.552Z" fill="#5A6470"/>
<path d="M200.18 188.552H205.356V192.899H200.18V188.552Z" fill="#5A6470"/>
<path d="M210.533 121.785L174.299 111.641V153.779H169.122V105.964H107.007V153.779H101.831V127.698H96.655V112.485H86.302V99.4443H81.126V112.485H70.773V127.698H65.597V153.779H60.421V214.633H107.007V218.98H169.122V214.633H215.709V153.779H210.533V121.785ZM179.475 117.674L205.356 124.918V153.779H200.18V127.698H195.004V153.779H189.828V127.698H184.651V153.779H179.475V117.674ZM75.949 116.831H91.478V127.698H75.949V116.831ZM70.773 132.045H96.655V153.779H70.773V132.045ZM65.597 210.286V158.125H107.007V210.286H65.597ZM132.888 214.633V192.899H143.241V214.633H132.888ZM148.417 214.633V188.552H127.712V214.633H112.183V110.311H163.946V214.633H148.417ZM184.651 210.286V201.593H195.004V210.286H184.651ZM210.533 210.286H200.18V197.246H179.475V210.286H169.122V158.125H210.533V210.286Z" fill="black"/>
<path d="M70.773 162.472H101.831V166.819H70.773V162.472Z" fill="black"/>
<path d="M70.773 171.165H101.831V175.512H70.773V171.165Z" fill="black"/>
<path d="M70.773 179.859H101.831V184.206H70.773V179.859Z" fill="black"/>
<path d="M70.773 188.552H101.831V192.899H70.773V188.552Z" fill="black"/>
<path d="M119.948 132.045H135.477V119.005H119.948V132.045ZM125.124 123.351H130.3V127.698H125.124V123.351Z" fill="black"/>
<path d="M140.653 132.045H156.182V119.005H140.653V132.045ZM145.829 123.351H151.005V127.698H145.829V123.351Z" fill="black"/>
<path d="M119.948 149.432H135.477V136.392H119.948V149.432ZM125.124 140.738H130.3V145.085H125.124V140.738Z" fill="black"/>
<path d="M140.653 149.432H156.182V136.392H140.653V149.432ZM145.829 140.738H151.005V145.085H145.829V140.738Z" fill="black"/>
<path d="M119.948 166.819H135.477V153.779H119.948V166.819ZM125.124 158.125H130.3V162.472H125.124V158.125Z" fill="black"/>
<path d="M140.653 166.819H156.182V153.779H140.653V166.819ZM145.829 158.125H151.005V162.472H145.829V158.125Z" fill="black"/>
<path d="M119.948 184.206H135.477V171.165H119.948V184.206ZM125.124 175.512H130.3V179.859H125.124V175.512Z" fill="black"/>
<path d="M140.653 184.206H156.182V171.165H140.653V184.206ZM145.829 175.512H151.005V179.859H145.829V175.512Z" fill="black"/>
<path d="M174.299 162.472H179.475V166.819H174.299V162.472Z" fill="black"/>
<path d="M184.651 162.472H195.004V166.819H184.651V162.472Z" fill="black"/>
<path d="M200.18 162.472H205.356V166.819H200.18V162.472Z" fill="black"/>
<path d="M174.299 171.165H179.475V175.512H174.299V171.165Z" fill="black"/>
<path d="M184.651 171.165H195.004V175.512H184.651V171.165Z" fill="black"/>
<path d="M200.18 171.165H205.356V175.512H200.18V171.165Z" fill="black"/>
<path d="M174.299 179.859H179.475V184.206H174.299V179.859Z" fill="black"/>
<path d="M184.651 179.859H195.004V184.206H184.651V179.859Z" fill="black"/>
<path d="M200.18 179.859H205.356V184.206H200.18V179.859Z" fill="black"/>
<path d="M174.299 188.552H179.475V192.899H174.299V188.552Z" fill="black"/>
<path d="M184.651 188.552H195.004V192.899H184.651V188.552Z" fill="black"/>
<path d="M200.18 188.552H205.356V192.899H200.18V188.552Z" fill="black"/>
<path d="M251.359 490.343H255.649C255.565 486.12 252.02 483.13 246.78 483.13C241.611 483.13 237.729 486.084 237.741 490.501C237.741 494.09 240.252 496.152 244.303 497.214L247.104 497.946C249.76 498.63 251.515 499.473 251.527 501.413C251.515 503.549 249.519 504.977 246.611 504.977C243.822 504.977 241.659 503.707 241.479 501.083H237.092C237.272 506.05 240.913 508.845 246.647 508.845C252.548 508.845 255.973 505.855 255.985 501.45C255.973 497.116 252.452 495.139 248.75 494.249L246.442 493.662C244.423 493.174 242.236 492.308 242.26 490.221C242.272 488.341 243.931 486.962 246.719 486.962C249.375 486.962 251.13 488.219 251.359 490.343ZM268.987 489.721H265.345V485.229H260.994V489.721H258.374V493.138H260.994V503.561C260.971 507.089 263.494 508.821 266.763 508.724C268.001 508.687 268.854 508.443 269.323 508.284L268.591 504.83C268.35 504.891 267.857 505.001 267.316 505.001C266.222 505.001 265.345 504.611 265.345 502.829V493.138H268.987V489.721ZM277.938 508.845C280.834 508.845 282.565 507.467 283.358 505.892H283.502V508.467H287.685V495.921C287.685 490.965 283.706 489.476 280.185 489.476C276.303 489.476 273.323 491.234 272.361 494.651L276.424 495.237C276.856 493.955 278.082 492.858 280.209 492.858C282.228 492.858 283.334 493.907 283.334 495.75V495.822C283.334 497.092 282.024 497.154 278.767 497.508C275.185 497.898 271.76 498.984 271.76 503.207C271.76 506.892 274.416 508.845 277.938 508.845ZM279.068 505.6C277.253 505.6 275.955 504.758 275.955 503.134C275.955 501.437 277.409 500.729 279.356 500.448C280.498 500.29 282.782 499.997 283.346 499.533V501.742C283.346 503.83 281.688 505.6 279.068 505.6ZM292.06 508.467H296.411V497.446C296.411 495.066 298.177 493.382 300.569 493.382C301.303 493.382 302.215 493.517 302.589 493.638V489.574C302.192 489.5 301.507 489.452 301.026 489.452C298.911 489.452 297.144 490.672 296.471 492.844H296.279V489.721H292.06V508.467ZM315.689 489.721H312.047V485.229H307.696V489.721H305.076V493.138H307.696V503.561C307.672 507.089 310.196 508.821 313.465 508.724C314.703 508.687 315.556 508.443 316.025 508.284L315.293 504.83C315.052 504.891 314.559 505.001 314.018 505.001C312.924 505.001 312.047 504.611 312.047 502.829V493.138H315.689V489.721ZM333.564 475.416H329.525V516.523H333.564V475.416ZM345.693 475.416H341.656V516.523H345.693V475.416ZM360.57 508.467H365.029V497.849H375.257V494.053H365.029V487.267H376.339V483.472H360.57V508.467ZM380.209 508.467H384.559V489.721H380.209V508.467ZM382.396 487.059C383.778 487.059 384.908 485.986 384.908 484.668C384.908 483.337 383.778 482.263 382.396 482.263C381.001 482.263 379.872 483.337 379.872 484.668C379.872 485.986 381.001 487.059 382.396 487.059ZM393.385 497.483C393.385 494.773 394.994 493.211 397.291 493.211C399.537 493.211 400.884 494.713 400.884 497.214V508.467H405.234V496.531C405.246 492.04 402.723 489.476 398.913 489.476C396.149 489.476 394.25 490.819 393.409 492.906H393.192V489.721H389.034V508.467H393.385V497.483ZM416.509 508.797C419.681 508.797 421.112 506.88 421.796 505.514H422.061V508.467H426.34V483.472H421.977V492.82H421.796C421.135 491.466 419.778 489.476 416.521 489.476C412.253 489.476 408.901 492.87 408.901 499.118C408.901 505.294 412.158 508.797 416.509 508.797ZM417.722 505.172C414.849 505.172 413.335 502.609 413.335 499.094C413.335 495.603 414.825 493.101 417.722 493.101C420.522 493.101 422.061 495.457 422.061 499.094C422.061 502.731 420.498 505.172 417.722 505.172ZM445.212 475.416H441.174V516.523H445.212V475.416ZM457.343 475.416H453.304V516.523H457.343V475.416ZM493.287 491.905C492.53 486.352 488.324 483.13 482.867 483.13C476.437 483.13 471.593 487.889 471.593 495.969C471.593 504.037 476.377 508.809 482.867 508.809C488.72 508.809 492.602 504.965 493.287 500.192L488.792 500.168C488.227 503.098 485.872 504.744 482.927 504.744C478.937 504.744 476.077 501.706 476.077 495.969C476.077 490.33 478.913 487.194 482.939 487.194C485.932 487.194 488.276 488.915 488.792 491.905H493.287ZM505.231 508.833C510.639 508.833 514.077 504.965 514.077 499.167C514.077 493.358 510.639 489.476 505.231 489.476C499.823 489.476 496.386 493.358 496.386 499.167C496.386 504.965 499.823 508.833 505.231 508.833ZM505.255 505.294C502.263 505.294 500.796 502.584 500.796 499.155C500.796 495.725 502.263 492.979 505.255 492.979C508.199 492.979 509.666 495.725 509.666 499.155C509.666 502.584 508.199 505.294 505.255 505.294ZM522.121 483.472H517.77V508.467H522.121V483.472ZM530.945 483.472H526.594V508.467H530.945V483.472ZM540.731 508.845C543.628 508.845 545.359 507.467 546.152 505.892H546.296V508.467H550.479V495.921C550.479 490.965 546.501 489.476 542.979 489.476C539.097 489.476 536.116 491.234 535.155 494.651L539.217 495.237C539.649 493.955 540.876 492.858 543.003 492.858C545.022 492.858 546.128 493.907 546.128 495.75V495.822C546.128 497.092 544.818 497.154 541.561 497.508C537.979 497.898 534.554 498.984 534.554 503.207C534.554 506.892 537.21 508.845 540.731 508.845ZM541.861 505.6C540.046 505.6 538.748 504.758 538.748 503.134C538.748 501.437 540.203 500.729 542.15 500.448C543.292 500.29 545.575 499.997 546.14 499.533V501.742C546.14 503.83 544.481 505.6 541.861 505.6ZM555.046 508.467H559.324V505.514H559.577C560.262 506.88 561.692 508.797 564.865 508.797C569.216 508.797 572.473 505.294 572.473 499.118C572.473 492.87 569.12 489.476 564.853 489.476C561.596 489.476 560.238 491.466 559.577 492.82H559.397V483.472H555.046V508.467ZM559.312 499.094C559.312 495.457 560.851 493.101 563.651 493.101C566.548 493.101 568.038 495.603 568.038 499.094C568.038 502.609 566.524 505.172 563.651 505.172C560.875 505.172 559.312 502.731 559.312 499.094ZM584.224 508.833C589.633 508.833 593.071 504.965 593.071 499.167C593.071 493.358 589.633 489.476 584.224 489.476C578.816 489.476 575.379 493.358 575.379 499.167C575.379 504.965 578.816 508.833 584.224 508.833ZM584.249 505.294C581.256 505.294 579.789 502.584 579.789 499.155C579.789 495.725 581.256 492.979 584.249 492.979C587.193 492.979 588.66 495.725 588.66 499.155C588.66 502.584 587.193 505.294 584.249 505.294ZM596.763 508.467H601.114V497.446C601.114 495.066 602.881 493.382 605.273 493.382C606.005 493.382 606.919 493.517 607.291 493.638V489.574C606.895 489.5 606.209 489.452 605.729 489.452C603.614 489.452 601.847 490.672 601.174 492.844H600.981V489.721H596.763V508.467ZM615.13 508.845C618.027 508.845 619.758 507.467 620.552 505.892H620.696V508.467H624.878V495.921C624.878 490.965 620.9 489.476 617.378 489.476C613.496 489.476 610.516 491.234 609.554 494.651L613.616 495.237C614.049 493.955 615.275 492.858 617.402 492.858C619.422 492.858 620.527 493.907 620.527 495.75V495.822C620.527 497.092 619.217 497.154 615.96 497.508C612.378 497.898 608.953 498.984 608.953 503.207C608.953 506.892 611.61 508.845 615.13 508.845ZM616.26 505.6C614.446 505.6 613.148 504.758 613.148 503.134C613.148 501.437 614.602 500.729 616.549 500.448C617.691 500.29 619.974 499.997 620.54 499.533V501.742C620.54 503.83 618.88 505.6 616.26 505.6ZM638.471 489.721H634.829V485.229H630.479V489.721H627.859V493.138H630.479V503.561C630.454 507.089 632.979 508.821 636.248 508.724C637.486 508.687 638.339 508.443 638.808 508.284L638.074 504.83C637.834 504.891 637.342 505.001 636.8 505.001C635.707 505.001 634.829 504.611 634.829 502.829V493.138H638.471V489.721ZM650.084 508.833C654.388 508.833 657.344 506.697 658.112 503.439L654.05 502.975C653.462 504.561 652.019 505.391 650.144 505.391C647.332 505.391 645.469 503.512 645.434 500.303H658.294V498.947C658.294 492.369 654.399 489.476 649.856 489.476C644.568 489.476 641.118 493.419 641.118 499.204C641.118 505.087 644.52 508.833 650.084 508.833ZM645.445 497.325C645.577 494.932 647.32 492.918 649.916 492.918C652.416 492.918 654.099 494.773 654.123 497.325H645.445ZM291.88 549.913H294.86V540.149H300.245C300.461 540.149 300.666 540.149 300.87 540.137L306.062 549.913H309.523L303.958 539.588C307.095 538.501 308.561 535.901 308.561 532.582C308.561 528.163 305.965 524.917 300.197 524.917H291.88V549.913ZM294.86 537.415V527.602H300.1C304.091 527.602 305.629 529.579 305.629 532.582C305.629 535.584 304.091 537.415 300.149 537.415H294.86ZM320.686 550.303C324.436 550.303 327.176 548.4 328.041 545.568L325.301 544.787C324.58 546.74 322.909 547.716 320.686 547.716C317.356 547.716 315.061 545.531 314.928 541.516H328.33V540.296C328.33 533.315 324.244 530.922 320.397 530.922C315.397 530.922 312.08 534.925 312.08 540.686C312.08 546.447 315.349 550.303 320.686 550.303ZM314.928 539.026C315.121 536.109 317.152 533.51 320.397 533.51C323.474 533.51 325.445 535.853 325.445 539.026H314.928ZM338.077 550.353C341.297 550.353 342.981 548.595 343.557 547.375H343.701V549.913H346.538V537.561C346.538 531.605 342.067 530.922 339.712 530.922C336.923 530.922 333.75 531.898 332.308 535.316L335 536.293C335.625 534.925 337.104 533.46 339.807 533.46C342.415 533.46 343.701 534.864 343.701 537.268V537.366C343.701 538.757 342.308 538.636 338.942 539.075C335.517 539.526 331.779 540.296 331.779 544.592C331.779 548.253 334.567 550.353 338.077 550.353ZM338.509 547.765C336.25 547.765 334.615 546.74 334.615 544.738C334.615 542.541 336.586 541.857 338.798 541.564C339.999 541.419 343.221 541.077 343.701 540.491V543.127C343.701 545.47 341.875 547.765 338.509 547.765ZM354.552 524.917H351.715V549.913H354.552V524.917ZM369.65 549.913H384.697V547.228H372.631V538.733H383.736V536.048H372.631V527.602H384.505V524.917H369.65V549.913ZM402.57 535.365C401.681 532.704 399.685 530.922 396.032 530.922C392.137 530.922 389.253 533.168 389.253 536.341C389.253 538.929 390.767 540.662 394.156 541.467L397.233 542.199C399.096 542.639 399.973 543.542 399.973 544.835C399.973 546.447 398.291 547.765 395.646 547.765C393.327 547.765 391.873 546.752 391.368 544.738L388.676 545.422C389.337 548.607 391.921 550.303 395.695 550.303C399.985 550.303 402.906 547.924 402.906 544.689C402.906 542.078 401.295 540.43 398.002 539.612L395.262 538.929C393.075 538.379 392.09 537.635 392.09 536.195C392.09 534.583 393.772 533.412 396.032 533.412C398.507 533.412 399.529 534.804 400.021 536.096L402.57 535.365ZM415.205 531.167H411.262V526.674H408.426V531.167H405.638V533.607H408.426V545.324C408.426 548.595 411.022 550.157 413.426 550.157C414.483 550.157 415.156 549.962 415.541 549.815L414.964 547.228C414.724 547.277 414.339 547.375 413.713 547.375C412.464 547.375 411.262 546.984 411.262 544.543V533.607H415.205V531.167ZM424.903 550.353C428.124 550.353 429.807 548.595 430.384 547.375H430.528V549.913H433.364V537.561C433.364 531.605 428.894 530.922 426.538 530.922C423.75 530.922 420.577 531.898 419.135 535.316L421.826 536.293C422.451 534.925 423.93 533.46 426.634 533.46C429.242 533.46 430.528 534.864 430.528 537.268V537.366C430.528 538.757 429.134 538.636 425.769 539.075C422.343 539.526 418.606 540.296 418.606 544.592C418.606 548.253 421.394 550.353 424.903 550.353ZM425.336 547.765C423.077 547.765 421.442 546.74 421.442 544.738C421.442 542.541 423.413 541.857 425.625 541.564C426.826 541.419 430.048 541.077 430.528 540.491V543.127C430.528 545.47 428.702 547.765 425.336 547.765ZM446.57 531.167H442.628V526.674H439.792V531.167H437.004V533.607H439.792V545.324C439.792 548.595 442.388 550.157 444.791 550.157C445.849 550.157 446.522 549.962 446.906 549.815L446.33 547.228C446.089 547.277 445.705 547.375 445.08 547.375C443.83 547.375 442.628 546.984 442.628 544.543V533.607H446.57V531.167ZM458.379 550.303C462.129 550.303 464.869 548.4 465.734 545.568L462.994 544.787C462.273 546.74 460.603 547.716 458.379 547.716C455.05 547.716 452.754 545.531 452.622 541.516H466.023V540.296C466.023 533.315 461.936 530.922 458.09 530.922C453.09 530.922 449.773 534.925 449.773 540.686C449.773 546.447 453.042 550.303 458.379 550.303ZM452.622 539.026C452.814 536.109 454.845 533.51 458.09 533.51C461.167 533.51 463.138 535.853 463.138 539.026H452.622ZM479.856 556.944H482.692V547.033H482.933C483.558 548.058 484.76 550.303 488.318 550.303C492.932 550.303 496.154 546.545 496.154 540.589C496.154 534.681 492.932 530.922 488.27 530.922C484.664 530.922 483.558 533.168 482.933 534.145H482.597V531.167H479.856V556.944ZM482.645 540.539C482.645 536.341 484.471 533.51 487.933 533.51C491.539 533.51 493.318 536.585 493.318 540.539C493.318 544.543 491.49 547.716 487.933 547.716C484.52 547.716 482.645 544.787 482.645 540.539ZM500.481 549.913H503.317V538.049C503.317 535.511 505.288 533.656 507.98 533.656C508.737 533.656 509.518 533.802 509.711 533.851V530.922C509.386 530.898 508.641 530.873 508.22 530.873C506.009 530.873 504.086 532.142 503.413 533.998H503.221V531.167H500.481V549.913ZM520.011 550.303C525.01 550.303 528.376 546.447 528.376 540.637C528.376 534.778 525.01 530.922 520.011 530.922C515.011 530.922 511.646 534.778 511.646 540.637C511.646 546.447 515.011 550.303 520.011 550.303ZM520.011 547.716C516.213 547.716 514.483 544.397 514.483 540.637C514.483 536.878 516.213 533.51 520.011 533.51C523.809 533.51 525.54 536.878 525.54 540.637C525.54 544.397 523.809 547.716 520.011 547.716ZM532.706 531.167V551.28C532.706 553.184 531.937 554.258 530.206 554.258H529.677V556.944H530.254C533.812 556.944 535.542 554.746 535.542 551.28V531.167H532.706ZM534.1 528.042C535.206 528.042 536.12 527.162 536.12 526.089C536.12 525.014 535.206 524.136 534.1 524.136C532.995 524.136 532.081 525.014 532.081 526.089C532.081 527.162 532.995 528.042 534.1 528.042ZM548.478 550.303C552.228 550.303 554.968 548.4 555.833 545.568L553.093 544.787C552.372 546.74 550.701 547.716 548.478 547.716C545.148 547.716 542.853 545.531 542.72 541.516H556.122V540.296C556.122 533.315 552.036 530.922 548.189 530.922C543.189 530.922 539.872 534.925 539.872 540.686C539.872 546.447 543.141 550.303 548.478 550.303ZM542.72 539.026C542.912 536.109 544.944 533.51 548.189 533.51C551.266 533.51 553.237 535.853 553.237 539.026H542.72ZM567.936 550.303C572.022 550.303 574.715 547.765 575.195 544.445H572.358C571.83 546.495 570.148 547.716 567.936 547.716C564.571 547.716 562.407 544.885 562.407 540.539C562.407 536.293 564.619 533.51 567.936 533.51C570.436 533.51 571.926 535.071 572.358 536.781H575.195C574.715 533.265 571.782 530.922 567.888 530.922C562.888 530.922 559.571 534.925 559.571 540.637C559.571 546.252 562.743 550.303 567.936 550.303ZM587.371 531.167H583.428V526.674H580.592V531.167H577.804V533.607H580.592V545.324C580.592 548.595 583.188 550.157 585.592 550.157C586.649 550.157 587.322 549.962 587.707 549.815L587.13 547.228C586.89 547.277 586.505 547.375 585.88 547.375C584.63 547.375 583.428 546.984 583.428 544.543V533.607H587.371V531.167ZM604.383 535.365C603.494 532.704 601.499 530.922 597.845 530.922C593.95 530.922 591.066 533.168 591.066 536.341C591.066 538.929 592.581 540.662 595.97 541.467L599.046 542.199C600.91 542.639 601.787 543.542 601.787 544.835C601.787 546.447 600.104 547.765 597.46 547.765C595.14 547.765 593.687 546.752 593.181 544.738L590.489 545.422C591.15 548.607 593.734 550.303 597.508 550.303C601.799 550.303 604.719 547.924 604.719 544.689C604.719 542.078 603.109 540.43 599.816 539.612L597.075 538.929C594.888 538.379 593.903 537.635 593.903 536.195C593.903 534.583 595.585 533.412 597.845 533.412C600.32 533.412 601.343 534.804 601.835 536.096L604.383 535.365Z" fill="white"/>
<path d="M231.865 309.326H248.375V288.942H254.076L264.766 309.326H282.701L270.349 286.288C276.821 283.122 280.681 277.122 280.681 268.558C280.681 255.411 271.625 247.571 258.115 247.571H231.865V309.326ZM248.375 275.916V260.959H254.195C259.985 260.959 263.459 263.251 263.459 268.558C263.459 273.836 259.985 275.916 254.195 275.916H248.375ZM308.831 310.17C321.48 310.17 329.616 304.019 331.16 294.37H316.194C315.245 296.993 312.542 298.47 309.188 298.47C304.318 298.47 301.467 295.214 301.467 290.751V290.028H331.16V286.168C331.16 271.423 322.253 262.407 308.475 262.407C294.341 262.407 285.314 271.935 285.314 286.288C285.314 301.276 294.222 310.17 308.831 310.17ZM301.467 280.861C301.556 276.851 304.823 274.106 308.831 274.106C312.899 274.106 315.987 276.88 316.076 280.861H301.467ZM350.558 310.05C356.497 310.05 360.98 308 363.742 302.813H364.098V309.326H379.42V277.604C379.42 269.041 371.432 262.407 358.397 262.407C344.767 262.407 338.056 269.643 337.493 278.087H352.577C352.963 275.222 355.041 273.865 358.159 273.865C361.01 273.865 363.029 275.192 363.029 277.604V277.725C363.029 280.408 360.119 281.253 352.458 281.825C343.045 282.52 335.711 286.379 335.711 296.541C335.711 305.768 341.828 310.05 350.558 310.05ZM355.902 299.556C353.111 299.556 351.151 298.169 351.151 295.576C351.151 293.194 352.815 291.355 356.615 290.751C359.228 290.329 361.425 289.786 363.147 289.063V292.923C363.147 297.144 359.614 299.556 355.902 299.556ZM403.642 247.571H387.251V309.326H403.642V247.571ZM428.414 309.326H472.123V295.817H444.923V285.203H469.985V271.694H444.923V261.08H472.241V247.571H428.414V309.326ZM522.357 278.087C521.94 268.287 513.923 262.407 500.74 262.407C487.704 262.407 479.657 267.835 479.717 277.484C479.657 284.781 484.319 289.454 493.613 291.113L501.69 292.561C505.253 293.224 506.857 294.189 506.916 295.938C506.857 297.868 504.689 298.954 501.69 298.954C497.978 298.954 495.365 297.325 494.919 294.37H478.648C479.539 303.868 487.615 310.17 501.571 310.17C514.191 310.17 523.484 303.929 523.544 294.008C523.484 287.163 518.971 283.183 509.648 281.465L500.383 279.775C496.909 279.143 495.93 277.876 495.988 276.518C495.93 274.589 498.275 273.503 501.096 273.503C504.332 273.503 507.035 275.253 507.273 278.087H522.357ZM557.024 263.01H549.185V251.914H532.794V263.01H526.973V275.072H532.794V295.998C532.675 305.707 538.584 310.623 549.897 309.989C553.609 309.778 556.371 308.995 557.855 308.542L555.48 296.843C554.856 296.993 553.253 297.325 552.272 297.325C550.134 297.325 549.185 296.36 549.185 294.43V275.072H557.024V263.01ZM576.421 310.05C582.36 310.05 586.843 308 589.604 302.813H589.961V309.326H605.283V277.604C605.283 269.041 597.295 262.407 584.26 262.407C570.63 262.407 563.92 269.643 563.356 278.087H578.44C578.826 275.222 580.904 273.865 584.022 273.865C586.873 273.865 588.892 275.192 588.892 277.604V277.725C588.892 280.408 585.982 281.253 578.321 281.825C568.908 282.52 561.574 286.379 561.574 296.541C561.574 305.768 567.691 310.05 576.421 310.05ZM581.765 299.556C578.974 299.556 577.015 298.169 577.015 295.576C577.015 293.194 578.677 291.355 582.478 290.751C585.091 290.329 587.289 289.786 589.011 289.063V292.923C589.011 297.144 585.477 299.556 581.765 299.556ZM640.314 263.01H632.475V251.914H616.084V263.01H610.264V275.072H616.084V295.998C615.966 305.707 621.874 310.623 633.188 309.989C636.899 309.778 639.661 308.995 641.145 308.542L638.77 296.843C638.146 296.993 636.542 297.325 635.563 297.325C633.425 297.325 632.475 296.36 632.475 294.43V275.072H640.314V263.01ZM668.366 310.17C681.016 310.17 689.152 304.019 690.696 294.37H675.731C674.78 296.993 672.078 298.47 668.723 298.47C663.853 298.47 661.003 295.214 661.003 290.751V290.028H690.696V286.168C690.696 271.423 681.788 262.407 668.01 262.407C653.876 262.407 644.849 271.935 644.849 286.288C644.849 301.276 653.757 310.17 668.366 310.17ZM661.003 280.861C661.092 276.851 664.358 274.106 668.366 274.106C672.435 274.106 675.523 276.88 675.612 280.861H661.003ZM338.743 350.68H322.234V383.004H321.759L300.142 350.68H286.126V412.435H302.636V379.989H302.992L324.965 412.435H338.743V350.68ZM368.645 413.279C381.294 413.279 389.43 407.128 390.974 397.479H376.008C375.059 400.102 372.356 401.579 369 401.579C364.131 401.579 361.281 398.323 361.281 393.86V393.136H390.974V389.277C390.974 374.531 382.066 365.515 368.289 365.515C354.154 365.515 345.128 375.044 345.128 389.397C345.128 404.384 354.035 413.279 368.645 413.279ZM361.281 383.97C361.369 379.96 364.636 377.215 368.645 377.215C372.712 377.215 375.8 379.989 375.89 383.97H361.281ZM424.861 366.119H417.022V355.022H400.631V366.119H394.812V378.18H400.631V399.106C400.513 408.816 406.422 413.732 417.735 413.098C421.447 412.887 424.208 412.103 425.694 411.65L423.317 399.952C422.694 400.102 421.091 400.434 420.111 400.434C417.973 400.434 417.022 399.468 417.022 397.539V378.18H424.861V366.119ZM439.627 412.435H457.324L463.738 387.588H464.213L470.627 412.435H488.325L499.726 366.119H483.335L478.347 394.102H477.991L471.934 366.119H456.018L450.197 394.342H449.841L444.615 366.119H428.225L439.627 412.435ZM525.871 413.279C540.718 413.279 549.507 403.63 549.507 389.397C549.507 375.165 540.718 365.515 525.871 365.515C511.024 365.515 502.236 375.165 502.236 389.397C502.236 403.63 511.024 413.279 525.871 413.279ZM525.99 400.977C521.596 400.977 518.983 396.544 518.983 389.277C518.983 382.01 521.596 377.577 525.99 377.577C530.147 377.577 532.76 382.01 532.76 389.277C532.76 396.544 530.147 400.977 525.99 400.977ZM556.159 412.435H572.55V388.311C572.55 383.004 576.142 379.507 580.983 379.507C582.675 379.507 585.407 379.779 587.04 380.351V366.149C585.733 365.757 584.309 365.515 582.883 365.515C578.013 365.515 574.212 368.41 572.55 374.923H572.075V366.119H556.159V412.435ZM592.414 412.435H608.805V399.287L611.27 396.121L620.563 412.435H639.33L623.355 386.412L638.855 366.119H620.445L609.399 381.678H608.805V350.68H592.414V412.435Z" fill="white"/>
<path d="M816.79 279.722C816.79 291.167 806.54 300.445 793.895 300.445C781.25 300.445 771 291.167 771 279.722C771 268.277 781.25 259 793.895 259C806.54 259 816.79 268.277 816.79 279.722Z" fill="#FFCB5A"/>
<path d="M793.895 273.247H799.619V270.656H795.326V266.771H792.464V270.84C790.003 271.419 788.171 273.431 788.171 275.837C788.171 278.694 790.738 281.018 793.895 281.018C795.473 281.018 796.757 282.179 796.757 283.608C796.757 285.037 795.473 286.198 793.895 286.198H788.171V288.789H792.464V292.674H795.326V288.605C797.787 288.026 799.619 286.014 799.619 283.608C799.619 280.751 797.052 278.427 793.895 278.427C792.317 278.427 791.033 277.266 791.033 275.837C791.033 274.408 792.317 273.247 793.895 273.247Z" fill="white"/>
<g clip-path="url(#clip0)">
<path d="M688.316 150.858H743.684V187.564H688.316V150.858Z" fill="#C3AFF0"/>
<path d="M738.62 150.858H743.684V187.564H738.62V150.858Z" fill="#AA96E6"/>
<path d="M688.317 150.858V187.564H676.941C673.403 187.564 670.535 185.298 670.535 182.502V164.64C670.535 157.028 678.341 150.858 687.973 150.858H688.317Z" fill="#EDF4FF"/>
<path d="M687.973 150.858C686.336 150.858 684.755 151.041 683.253 151.373V187.564H688.317V150.858H687.973Z" fill="#DBEAFF"/>
<path d="M761.465 164.64V182.502C761.465 185.298 758.597 187.564 755.059 187.564H743.683V150.858H744.027C753.656 150.858 761.465 157.028 761.465 164.64V164.64Z" fill="#EDF4FF"/>
<path d="M744.027 150.858H743.683V151.374C751.019 153.001 756.401 158.321 756.401 164.64V182.502C756.401 185.298 753.533 187.564 749.995 187.564H755.059C758.597 187.564 761.465 185.298 761.465 182.502V164.64C761.465 157.028 753.656 150.858 744.027 150.858Z" fill="#DBEAFF"/>
<path d="M730.518 150.858L721.06 169.8L717.814 176.304C717.165 177.606 714.834 177.606 714.184 176.304L710.936 169.802L701.478 150.858H730.518Z" fill="#EDF4FF"/>
<path d="M725.455 150.858L715.997 169.8L713.467 174.869L714.184 176.304C714.834 177.606 717.165 177.606 717.814 176.304L721.06 169.8L730.519 150.858H725.455Z" fill="#DBEAFF"/>
<path d="M723.932 150.858L715.999 157.465L708.067 150.858V141.397H723.932V150.858Z" fill="#FFDFCF"/>
<path d="M718.868 141.397V150.858L713.468 155.357L715.999 157.465L723.932 150.858V141.397H718.868Z" fill="#FFCEBF"/>
<path d="M721.061 169.8L717.815 176.304C717.165 177.606 714.834 177.606 714.184 176.304L710.936 169.802L716 157.465L721.061 169.8Z" fill="#E5646E"/>
<path d="M716 157.465L713.467 163.635L715.997 169.8L713.467 174.869L714.184 176.304C714.834 177.606 717.165 177.606 717.815 176.304L721.061 169.8L716 157.465Z" fill="#DB4655"/>
<path d="M670.535 178.499H688.317V187.564H676.941C673.403 187.564 670.535 185.298 670.535 182.502V178.499Z" fill="#FFDFCF"/>
<path d="M683.253 178.499H688.317V187.564H683.253V178.499Z" fill="#FFCEBF"/>
<path d="M762.186 149.326C770.534 149.326 777.301 143.977 777.301 137.38C777.301 130.782 770.534 125.434 762.186 125.434C753.838 125.434 747.071 130.782 747.071 137.38C747.071 143.977 753.838 149.326 762.186 149.326Z" fill="#FFD15B"/>
<path d="M762.186 125.434C761.154 125.434 760.147 125.516 759.172 125.672C766.076 126.776 772 131.598 772 137.38C772 143.162 766.076 147.983 759.172 149.088C760.147 149.243 761.154 149.326 762.186 149.326C770.534 149.326 777.301 143.977 777.301 137.38C777.301 130.782 770.534 125.434 762.186 125.434V125.434Z" fill="#FFC344"/>
<path d="M761.465 178.499V182.502C761.465 185.298 758.597 187.564 755.059 187.564H743.683V178.499H761.465Z" fill="#FFDFCF"/>
<path d="M756.401 178.499V182.502C756.401 185.298 753.533 187.564 749.995 187.564H755.059C758.597 187.564 761.465 185.298 761.465 182.502V178.499H756.401Z" fill="#FFCEBF"/>
<path d="M739.464 122.068H692.535V108.048L689.645 106.252C684.527 103.073 684.69 96.9039 689.971 93.8956C691.638 92.9464 693.64 92.4355 695.694 92.4355H726.001C733.437 92.4355 739.464 97.1993 739.464 103.076V122.068H739.464Z" fill="#FFD15B"/>
<path d="M726.001 92.4355H720.937C728.373 92.4355 734.401 97.1993 734.401 103.076V122.068H739.464V103.076C739.464 97.1993 733.437 92.4355 726.001 92.4355Z" fill="#FFC344"/>
<path d="M701.479 119.41C701.479 123.315 697.474 126.479 692.533 126.479C690.654 126.479 688.91 126.022 687.471 125.239C685.127 123.966 683.589 121.83 683.589 119.41C683.589 116.991 685.127 114.855 687.471 113.582C688.91 112.799 690.654 112.342 692.533 112.342C697.474 112.342 701.479 115.506 701.479 119.41V119.41Z" fill="#FFDFCF"/>
<path d="M701.48 119.41C701.48 123.315 697.474 126.479 692.533 126.479C690.654 126.479 688.91 126.022 687.471 125.239V113.582C688.91 112.799 690.654 112.342 692.533 112.342C697.474 112.342 701.48 115.506 701.48 119.41Z" fill="#FFCEBF"/>
<path d="M739.464 126.48C744.404 126.48 748.409 123.315 748.409 119.411C748.409 115.506 744.404 112.341 739.464 112.341C734.524 112.341 730.519 115.506 730.519 119.411C730.519 123.315 734.524 126.48 739.464 126.48Z" fill="#FFDFCF"/>
<path d="M739.464 112.342C738.585 112.342 737.735 112.444 736.932 112.631C740.639 113.494 743.345 116.202 743.345 119.411C743.345 122.62 740.639 125.327 736.932 126.191C737.735 126.378 738.585 126.48 739.464 126.48C744.404 126.48 748.409 123.315 748.409 119.41C748.409 115.507 744.404 112.342 739.464 112.342V112.342Z" fill="#FFCEBF"/>
<path d="M739.464 108.048V127.384C739.464 136.354 730.263 143.627 718.91 143.627H713.086C701.736 143.627 692.534 136.354 692.534 127.384V108.048C692.534 108.048 699.295 112.341 714.145 112.341C725.631 112.341 731.374 105.385 731.374 105.385L739.464 108.048Z" fill="#FFDFCF"/>
<path d="M731.374 105.385C731.374 105.385 730.951 105.895 730.113 106.636L734.401 108.048V127.384C734.401 136.354 725.199 143.627 713.846 143.627H718.91C730.263 143.627 739.464 136.354 739.464 127.384V108.048L731.374 105.385Z" fill="#FFCEBF"/>
<path d="M761.865 117.091C762.868 117.091 763.681 116.449 763.681 115.656V111.118C763.681 110.325 762.868 109.682 761.865 109.682C760.862 109.682 760.049 110.325 760.049 111.118V115.656C760.049 116.449 760.862 117.091 761.865 117.091Z" fill="black"/>
<path d="M773.081 119.761C773.941 120.142 775.061 119.903 775.551 119.204L778.303 115.295C778.791 114.602 778.476 113.728 777.599 113.342C776.723 112.957 775.616 113.206 775.129 113.899L772.376 117.808C771.889 118.501 772.204 119.375 773.081 119.761V119.761Z" fill="black"/>
<path d="M788.993 121.443C788.451 120.776 787.327 120.582 786.483 121.011L781.634 123.473C780.79 123.901 780.545 124.789 781.087 125.456C781.632 126.129 782.765 126.313 783.597 125.888L788.446 123.427C789.291 122.998 789.535 122.11 788.993 121.443Z" fill="black"/>
<path d="M744.027 149.423C740.394 149.423 729.206 149.423 725.749 149.423V144.217C734.593 141.967 741.053 135.478 741.274 127.792C746.348 127.109 750.224 123.612 750.224 119.41C750.224 115.21 746.351 111.714 741.28 111.03V103.076C741.28 96.4172 734.426 91 726.001 91H695.693C693.268 90.9985 690.875 91.6092 688.908 92.7313C685.925 94.4308 684.169 97.0725 684.092 99.979C683.844 103.747 686.941 106.754 690.719 108.746V111.029C685.646 111.713 681.772 115.21 681.772 119.41C681.772 121.007 682.336 122.564 683.402 123.912C683.937 124.59 685.067 124.785 685.905 124.369C686.756 123.949 687.015 123.063 686.483 122.391C685.778 121.499 685.405 120.469 685.405 119.411C685.405 116.8 687.664 114.6 690.719 113.963V127.385C690.719 135.248 697.25 141.929 706.25 144.217V149.423C702.843 149.423 691.557 149.423 687.972 149.423C677.356 149.423 668.719 156.249 668.719 164.64V168.067C668.719 168.86 669.532 169.502 670.535 169.502C671.538 169.502 672.351 168.86 672.351 168.067V164.64C672.351 158.224 678.574 152.936 686.5 152.348V177.064H672.351V174.74C672.351 173.947 671.538 173.305 670.535 173.305C669.532 173.305 668.719 173.947 668.719 174.74V182.502C668.694 186.104 672.511 189.026 676.941 189H755.058C759.488 189.026 763.305 186.104 763.28 182.502V164.64C763.281 156.249 754.644 149.423 744.027 149.423ZM715.999 162.118L719.132 169.752L716.125 175.777C716.105 175.872 715.883 175.86 715.874 175.777L712.866 169.753L715.999 162.118ZM721.228 165.555L718.06 157.834L724.713 152.294H727.848L721.228 165.555ZM746.592 119.41C746.592 122.021 744.334 124.222 741.28 124.858V113.963C744.334 114.599 746.592 116.8 746.592 119.41ZM687.725 100.039C687.777 98.0424 688.983 96.2279 691.033 95.0607C692.38 94.291 694.031 93.8696 695.694 93.8711H726.001C732.423 93.8711 737.648 98.0003 737.648 103.076V105.895L732.074 104.059C731.27 103.794 730.337 104.022 729.857 104.596C729.641 104.854 724.457 110.906 714.146 110.906C700.229 110.906 693.73 106.965 693.673 106.93C690.784 105.297 687.411 103.166 687.725 100.039V100.039ZM694.352 127.384V110.578C697.782 111.935 704.26 113.777 714.146 113.777C723.916 113.777 729.817 109.192 731.972 107.136L737.648 109.006V127.385C737.648 135.549 729.242 142.192 718.91 142.192H713.088C702.757 142.191 694.352 135.549 694.352 127.384V127.384ZM713.087 145.063C715.288 145.032 720.006 145.173 722.116 144.88V150.286L715.999 155.38L709.883 150.286V144.88C710.93 145 712 145.063 713.087 145.063V145.063ZM707.286 152.294L713.938 157.835L710.769 165.555L704.147 152.294H707.286ZM672.352 182.502V179.935H686.5V186.129H676.941C674.41 186.129 672.352 184.502 672.352 182.502V182.502ZM690.133 152.294H700.241L712.494 176.831C713.599 179.312 718.412 179.292 719.504 176.83L731.754 152.294H741.867V186.129H690.133V152.294ZM755.058 186.129H745.499V179.935H759.648V182.502C759.648 184.502 757.589 186.129 755.058 186.129V186.129ZM759.648 177.064H745.499V152.348C753.425 152.936 759.648 158.224 759.648 164.64V177.064Z" fill="black"/>
<path d="M715.916 129.024C716.919 129.024 717.732 128.381 717.732 127.588V122.402C717.732 121.609 716.919 120.967 715.916 120.967C714.912 120.967 714.099 121.609 714.099 122.402V127.588C714.099 128.381 714.912 129.024 715.916 129.024Z" fill="black"/>
<path d="M719.343 135.996C720.161 135.537 720.354 134.641 719.773 133.994C719.193 133.348 718.059 133.196 717.241 133.655C715.831 134.445 714.397 133.729 714.238 133.644L713.244 133.175C713.244 133.175 711.74 132.929 711.189 134.14C710.721 135.169 712.154 135.996 712.154 135.996C712.932 136.432 714.281 136.9 715.832 136.9C716.944 136.9 718.159 136.66 719.343 135.996V135.996Z" fill="black"/>
<path d="M762.186 123.998C754.439 123.998 747.692 128.137 745.779 134.064C745.531 134.832 746.118 135.614 747.09 135.81C748.062 136.005 749.052 135.542 749.299 134.773C750.801 130.12 756.101 126.87 762.186 126.87C769.519 126.87 775.485 131.584 775.485 137.38C775.485 143.175 769.519 147.89 762.186 147.89C756.451 147.89 751.38 145.003 749.568 140.707C749.25 139.955 748.222 139.549 747.27 139.799C746.318 140.05 745.804 140.863 746.121 141.615C748.429 147.085 754.885 150.761 762.187 150.761C771.523 150.761 779.118 144.758 779.118 137.38C779.118 130.001 771.522 123.998 762.186 123.998V123.998Z" fill="black"/>
<path d="M757.884 142.694C758.876 143.206 759.659 143.458 760.52 143.574V143.739C760.52 144.532 761.333 145.174 762.337 145.174C763.34 145.174 764.153 144.532 764.153 143.739V143.415C766.137 142.861 767.407 141.455 767.703 140.062C768.118 138.112 766.782 136.35 764.378 135.678C763.194 135.348 761.889 134.951 761.186 134.515C761.125 134.477 761.038 134.298 761.1 134.035C761.131 133.909 761.268 133.491 761.782 133.369C762.978 133.085 763.739 133.553 763.822 133.608L764.503 133.864C764.503 133.864 766.214 134.471 766.808 133.229C767.283 132.235 766.254 131.476 766.254 131.476C765.837 131.172 765.105 130.805 764.153 130.59V130.445C764.153 129.652 763.34 129.009 762.336 129.009C761.333 129.009 760.52 129.652 760.52 130.445V130.678C758.984 131.111 757.847 132.177 757.531 133.503C757.224 134.79 757.765 136.043 758.944 136.774C760.058 137.465 761.632 137.957 763.167 138.386C764.11 138.649 764.206 139.184 764.12 139.586C763.998 140.163 763.383 140.787 762.324 140.792C761.084 140.799 760.785 140.763 759.873 140.291C759.033 139.857 757.907 140.043 757.358 140.707C756.809 141.37 757.045 142.26 757.884 142.694V142.694Z" fill="black"/>
</g>
<defs>
<clipPath id="clip0">
<rect width="124" height="98" fill="white" transform="translate(667 91)"/>
</clipPath>
</defs>
</svg>
